<svg width="24" height="24" viewBox="0 0 24 24" fill="none" xmlns="http://www.w3.org/2000/svg">
<path fill-rule="evenodd" clip-rule="evenodd" d="M3 4.75C2.86193 4.75 2.75 4.86193 2.75 5V13C2.75 13.1381 2.86193 13.25 3 13.25H21C21.1381 13.25 21.25 13.1381 21.25 13V5C21.25 4.86193 21.1381 4.75 21 4.75H3ZM1.25 5C1.25 4.0335 2.0335 3.25 3 3.25H21C21.9665 3.25 22.75 4.0335 22.75 5V13C22.75 13.9665 21.9665 14.75 21 14.75H3C2.0335 14.75 1.25 13.9665 1.25 13V5Z" fill="#1C212D"/>
<path fill-rule="evenodd" clip-rule="evenodd" d="M15.25 7C15.25 6.58579 15.5858 6.25 16 6.25H18C18.4142 6.25 18.75 6.58579 18.75 7C18.75 7.41421 18.4142 7.75 18 7.75H16C15.5858 7.75 15.25 7.41421 15.25 7ZM5.25 10C5.25 9.58579 5.58579 9.25 6 9.25H18C18.4142 9.25 18.75 9.58579 18.75 10V14C18.75 14.4142 18.4142 14.75 18 14.75H6C5.58579 14.75 5.25 14.4142 5.25 14V10ZM6.75 10.75V13.25H17.25V10.75H6.75ZM12 16.25C12.4142 16.25 12.75 16.5858 12.75 17V20C12.75 20.4142 12.4142 20.75 12 20.75C11.5858 20.75 11.25 20.4142 11.25 20V17C11.25 16.5858 11.5858 16.25 12 16.25ZM8 17.25C8.41421 17.25 8.75 17.5858 8.75 18V19C8.75 19.4142 8.41421 19.75 8 19.75C7.58579 19.75 7.25 19.4142 7.25 19V18C7.25 17.5858 7.58579 17.25 8 17.25ZM16 17.25C16.4142 17.25 16.75 17.5858 16.75 18V19C16.75 19.4142 16.4142 19.75 16 19.75C15.5858 19.75 15.25 19.4142 15.25 19V18C15.25 17.5858 15.5858 17.25 16 17.25Z" fill="#1C212D"/>
</svg>
