<svg width="24" height="24" viewBox="0 0 24 24" fill="none" xmlns="http://www.w3.org/2000/svg">
<path d="M3.17177 7.62834C5.26817 5.82834 6.92417 4.40514 11.4182 6.94434C13.577 8.16354 15.3182 8.62434 16.7666 8.62194C19.3046 8.62194 20.9498 7.21074 22.3718 5.99034C22.6158 5.77801 22.7676 5.47897 22.795 5.15661C22.8223 4.83426 22.723 4.51394 22.5182 4.26354C22.4182 4.14067 22.2947 4.03909 22.1548 3.9648C22.015 3.89052 21.8616 3.84504 21.7039 3.83105C21.5461 3.81707 21.3871 3.83486 21.2364 3.88338C21.0856 3.9319 20.9461 4.01017 20.8262 4.11354C18.731 5.91594 17.0738 7.33914 12.5798 4.79754C6.64216 1.44594 3.86057 3.83394 1.62617 5.75394C1.38227 5.96644 1.2307 6.26557 1.2036 6.58791C1.17649 6.91026 1.27598 7.2305 1.48097 7.48074C1.58095 7.6034 1.70453 7.70476 1.84438 7.77881C1.98424 7.85287 2.13752 7.89811 2.29517 7.91187C2.45282 7.92564 2.61163 7.90763 2.7622 7.85893C2.91277 7.81023 3.05204 7.73182 3.17177 7.62834ZM20.8262 10.2419C18.731 12.0419 17.0738 13.4675 12.5798 10.9259C6.64216 7.57194 3.86057 9.96114 1.62617 11.8799C1.38227 12.0924 1.2307 12.3916 1.2036 12.7139C1.17649 13.0363 1.27598 13.3565 1.48097 13.6067C1.58078 13.7296 1.70422 13.8311 1.84399 13.9054C1.98376 13.9797 2.137 14.0252 2.29466 14.0391C2.45231 14.0531 2.61117 14.0353 2.76183 13.9868C2.91249 13.9383 3.05189 13.8601 3.17177 13.7567C5.26817 11.9555 6.92417 10.5323 11.4182 13.0703C13.577 14.2919 15.3182 14.7503 16.7666 14.7503C19.3046 14.7503 20.9498 13.3391 22.3718 12.1163C22.616 11.9044 22.768 11.6055 22.7953 11.2833C22.8227 10.961 22.7232 10.6408 22.5182 10.3907C22.4183 10.2678 22.2947 10.1662 22.1548 10.0919C22.0148 10.0177 21.8614 9.97224 21.7036 9.95836C21.5459 9.94449 21.3869 9.96244 21.2361 10.0111C21.0854 10.0599 20.946 10.1383 20.8262 10.2419ZM20.8262 16.3691C18.731 18.1715 17.0738 19.5947 12.5798 17.0555C6.64216 13.7015 3.86057 16.0895 1.62617 18.0095C1.38227 18.222 1.2307 18.5212 1.2036 18.8435C1.17649 19.1659 1.27598 19.4861 1.48097 19.7363C1.58085 19.8591 1.70439 19.9606 1.84425 20.0348C1.9841 20.1089 2.13743 20.1542 2.29513 20.168C2.45282 20.1818 2.61168 20.1637 2.76227 20.1149C2.91286 20.0661 3.05211 19.9876 3.17177 19.8839C5.26817 18.0839 6.92417 16.6619 11.4182 19.1999C13.577 20.4191 15.3182 20.8799 16.7666 20.8799C19.3046 20.8799 20.9498 19.4663 22.3718 18.2459C22.6158 18.0336 22.7676 17.7346 22.795 17.4122C22.8223 17.0899 22.723 16.7695 22.5182 16.5191C22.4181 16.3964 22.2946 16.295 22.1547 16.2208C22.0148 16.1466 21.8615 16.1012 21.7038 16.0872C21.5461 16.0732 21.3872 16.0909 21.2365 16.1394C21.0857 16.1878 20.9462 16.2659 20.8262 16.3691Z" fill="#1C212D"/>
</svg>
