<svg width="24" height="24" viewBox="0 0 24 24" fill="none" xmlns="http://www.w3.org/2000/svg">
<path fill-rule="evenodd" clip-rule="evenodd" d="M1.25 2C1.25 1.58579 1.58579 1.25 2 1.25H22C22.4142 1.25 22.75 1.58579 22.75 2C22.75 2.41421 22.4142 2.75 22 2.75H2C1.58579 2.75 1.25 2.41421 1.25 2Z" fill="#1C212D"/>
<path fill-rule="evenodd" clip-rule="evenodd" d="M5 2.75C4.86193 2.75 4.75 2.86193 4.75 3V21C4.75 21.1381 4.86193 21.25 5 21.25H19C19.1381 21.25 19.25 21.1381 19.25 21V3C19.25 2.86193 19.1381 2.75 19 2.75H5ZM3.25 3C3.25 2.0335 4.0335 1.25 5 1.25H19C19.9665 1.25 20.75 2.0335 20.75 3V21C20.75 21.9665 19.9665 22.75 19 22.75H5C4.0335 22.75 3.25 21.9665 3.25 21V3Z" fill="#1C212D"/>
<path fill-rule="evenodd" clip-rule="evenodd" d="M9.25 16C9.25 15.5858 9.58579 15.25 10 15.25H14C14.4142 15.25 14.75 15.5858 14.75 16V22C14.75 22.4142 14.4142 22.75 14 22.75H10C9.58579 22.75 9.25 22.4142 9.25 22V16ZM10.75 16.75V21.25H13.25V16.75H10.75Z" fill="#1C212D"/>
<path fill-rule="evenodd" clip-rule="evenodd" d="M7.5 5.25H8.5V6.75H7.5V5.25ZM11.5 5.25H12.5V6.75H11.5V5.25ZM15.5 5.25H16.5V6.75H15.5V5.25ZM7.5 8.25H8.5V9.75H7.5V8.25ZM11.5 8.25H12.5V9.75H11.5V8.25ZM16.5 9.75H15.5V8.25H16.5V9.75Z" fill="#1C212D"/>
<path fill-rule="evenodd" clip-rule="evenodd" d="M7.81186 15.3595C8.17016 13.5167 9.98257 12.25 12 12.25C14.0182 12.25 15.8301 13.5175 16.1882 15.3598M7.81186 15.3595C7.64905 16.1935 8.35981 16.75 9 16.75H10C10.4142 16.75 10.75 16.4142 10.75 16C10.75 15.5858 10.4142 15.25 10 15.25H9.40911C9.77332 14.4223 10.7433 13.75 12 13.75C13.2569 13.75 14.2266 14.4225 14.5908 15.25H14C13.5858 15.25 13.25 15.5858 13.25 16C13.25 16.4142 13.5858 16.75 14 16.75H15C15.6401 16.75 16.3507 16.1937 16.1882 15.3599M14.7159 15.647C14.7159 15.6467 14.7158 15.6464 14.7158 15.6461ZM1.25 22C1.25 21.5858 1.58579 21.25 2 21.25H22C22.4142 21.25 22.75 21.5858 22.75 22C22.75 22.4142 22.4142 22.75 22 22.75H2C1.58579 22.75 1.25 22.4142 1.25 22Z" fill="#1C212D"/>
</svg>
