<svg width="64" height="64" viewBox="0 0 64 64" fill="none" xmlns="http://www.w3.org/2000/svg">
<circle cx="32" cy="32" r="32" fill="#E6E9EE"/>
<path d="M32 22C29.38 22 27.25 24.13 27.25 26.75C27.25 29.32 29.26 31.4 31.88 31.49C31.96 31.48 32.04 31.48 32.1 31.49C32.12 31.49 32.13 31.49 32.15 31.49C32.16 31.49 32.16 31.49 32.17 31.49C34.73 31.4 36.74 29.32 36.75 26.75C36.75 24.13 34.62 22 32 22Z" fill="#AFB5C0"/>
<path d="M37.08 34.1499C34.29 32.2899 29.74 32.2899 26.93 34.1499C25.66 34.9999 24.96 36.1499 24.96 37.3799C24.96 38.6099 25.66 39.7499 26.92 40.5899C28.32 41.5299 30.16 41.9999 32 41.9999C33.84 41.9999 35.68 41.5299 37.08 40.5899C38.34 39.7399 39.04 38.5999 39.04 37.3599C39.03 36.1299 38.34 34.9899 37.08 34.1499Z" fill="#AFB5C0"/>
</svg>
