<svg width="40" height="40" viewBox="0 0 40 40" fill="none" xmlns="http://www.w3.org/2000/svg">
<circle cx="20" cy="20" r="20" fill="#E6E9EE"/>
<path d="M20.0003 11.6667C17.817 11.6667 16.042 13.4417 16.042 15.6251C16.042 17.7667 17.717 19.5001 19.9003 19.5751C19.967 19.5667 20.0337 19.5667 20.0837 19.5751C20.1003 19.5751 20.1087 19.5751 20.1253 19.5751C20.1337 19.5751 20.1337 19.5751 20.142 19.5751C22.2753 19.5001 23.9503 17.7667 23.9587 15.6251C23.9587 13.4417 22.1837 11.6667 20.0003 11.6667Z" fill="#AFB5C0"/>
<path d="M24.2338 21.7917C21.9088 20.2417 18.1171 20.2417 15.7755 21.7917C14.7171 22.5 14.1338 23.4583 14.1338 24.4833C14.1338 25.5083 14.7171 26.4583 15.7671 27.1583C16.9338 27.9417 18.4671 28.3333 20.0005 28.3333C21.5338 28.3333 23.0671 27.9417 24.2338 27.1583C25.2838 26.45 25.8671 25.5 25.8671 24.4667C25.8588 23.4417 25.2838 22.4917 24.2338 21.7917Z" fill="#AFB5C0"/>
</svg>
