<svg width="88" height="88" viewBox="0 0 88 88" fill="none" xmlns="http://www.w3.org/2000/svg">
<rect width="88" height="88" rx="44" fill="#E6E9EE"/>
<path d="M44 34C41.38 34 39.25 36.13 39.25 38.75C39.25 41.32 41.26 43.4 43.88 43.49C43.96 43.48 44.04 43.48 44.1 43.49C44.12 43.49 44.13 43.49 44.15 43.49C44.16 43.49 44.16 43.49 44.17 43.49C46.73 43.4 48.74 41.32 48.75 38.75C48.75 36.13 46.62 34 44 34Z" fill="#AFB5C0"/>
<path d="M49.08 46.1499C46.29 44.2899 41.74 44.2899 38.93 46.1499C37.66 46.9999 36.96 48.1499 36.96 49.3799C36.96 50.6099 37.66 51.7499 38.92 52.5899C40.32 53.5299 42.16 53.9999 44 53.9999C45.84 53.9999 47.68 53.5299 49.08 52.5899C50.34 51.7399 51.04 50.5999 51.04 49.3599C51.03 48.1299 50.34 46.9899 49.08 46.1499Z" fill="#AFB5C0"/>
</svg>
