<svg width="48" height="48" viewBox="0 0 48 48" fill="none" xmlns="http://www.w3.org/2000/svg">
<circle cx="24" cy="24" r="24" fill="#F6F7F9"/>
<path d="M24.0003 15.667C21.817 15.667 20.042 17.442 20.042 19.6253C20.042 21.767 21.717 23.5003 23.9003 23.5753C23.967 23.567 24.0337 23.567 24.0837 23.5753C24.1003 23.5753 24.1087 23.5753 24.1253 23.5753C24.1337 23.5753 24.1337 23.5753 24.142 23.5753C26.2753 23.5003 27.9503 21.767 27.9587 19.6253C27.9587 17.442 26.1837 15.667 24.0003 15.667Z" fill="#AFB5C0"/>
<path d="M28.2338 25.7914C25.9088 24.2414 22.1171 24.2414 19.7755 25.7914C18.7171 26.4997 18.1338 27.4581 18.1338 28.4831C18.1338 29.5081 18.7171 30.4581 19.7671 31.1581C20.9338 31.9414 22.4671 32.3331 24.0005 32.3331C25.5338 32.3331 27.0671 31.9414 28.2338 31.1581C29.2838 30.4497 29.8671 29.4997 29.8671 28.4664C29.8588 27.4414 29.2838 26.4914 28.2338 25.7914Z" fill="#AFB5C0"/>
</svg>
