<svg width="20" height="20" viewBox="0 0 20 20" fill="none" xmlns="http://www.w3.org/2000/svg">
<circle cx="10" cy="10" r="10" fill="#E6E9EE"/>
<path d="M10 5C8.69 5 7.625 6.065 7.625 7.375C7.625 8.66 8.63 9.7 9.94 9.745C9.98 9.74 10.02 9.74 10.05 9.745C10.06 9.745 10.065 9.745 10.075 9.745C10.08 9.745 10.08 9.745 10.085 9.745C11.365 9.7 12.37 8.66 12.375 7.375C12.375 6.065 11.31 5 10 5Z" fill="#AFB5C0"/>
<path d="M12.5405 11.0749C11.1455 10.1449 8.87047 10.1449 7.46547 11.0749C6.83047 11.4999 6.48047 12.0749 6.48047 12.6899C6.48047 13.3049 6.83047 13.8749 7.46047 14.2949C8.16047 14.7649 9.08047 14.9999 10.0005 14.9999C10.9205 14.9999 11.8405 14.7649 12.5405 14.2949C13.1705 13.8699 13.5205 13.2999 13.5205 12.6799C13.5155 12.0649 13.1705 11.4949 12.5405 11.0749Z" fill="#AFB5C0"/>
</svg>
