<svg width="12" height="12" viewBox="0 0 12 12" fill="none" xmlns="http://www.w3.org/2000/svg">
<rect width="12" height="12" fill="#E7E9EB"/>
<rect x="-73.5" y="-186.5" width="1149" height="2559" rx="37.5" fill="#E6E9EE"/>
<path d="M6 1C4.69 1 3.625 2.065 3.625 3.375C3.625 4.66 4.63 5.7 5.94 5.745C5.98 5.74 6.02 5.74 6.05 5.745C6.06 5.745 6.065 5.745 6.075 5.745C6.08 5.745 6.08 5.745 6.085 5.745C7.365 5.7 8.37 4.66 8.375 3.375C8.375 2.065 7.31 1 6 1Z" fill="#AFB5C0"/>
<path d="M8.54047 7.07494C7.14547 6.14494 4.87047 6.14494 3.46547 7.07494C2.83047 7.49994 2.48047 8.07494 2.48047 8.68994C2.48047 9.30494 2.83047 9.87494 3.46047 10.2949C4.16047 10.7649 5.08047 10.9999 6.00047 10.9999C6.92047 10.9999 7.84047 10.7649 8.54047 10.2949C9.17047 9.86994 9.52047 9.29994 9.52047 8.67994C9.51547 8.06494 9.17047 7.49494 8.54047 7.07494Z" fill="#AFB5C0"/>
<rect x="-73.5" y="-186.5" width="1149" height="2559" rx="37.5" stroke="white" stroke-width="3"/>
</svg>
