<svg width="28" height="20" viewBox="0 0 28 20" fill="none" xmlns="http://www.w3.org/2000/svg">
<rect width="28" height="20" rx="2" fill="white"/>
<mask id="mask0_36_155476" style="mask-type:alpha" maskUnits="userSpaceOnUse" x="0" y="0" width="28" height="20">
<rect width="28" height="20" rx="2" fill="white"/>
</mask>
<g mask="url(#mask0_36_155476)">
<path fill-rule="evenodd" clip-rule="evenodd" d="M0 6.66667H28V0H0V6.66667Z" fill="#24AAD5"/>
<path fill-rule="evenodd" clip-rule="evenodd" d="M0 20H28V13.3333H0V20Z" fill="#21BF75"/>
<path fill-rule="evenodd" clip-rule="evenodd" d="M0 13.3333H28V6.66666H0V13.3333Z" fill="#ED1845"/>
<g filter="url(#filter0_d_36_155476)">
<path fill-rule="evenodd" clip-rule="evenodd" d="M14 12C14.4114 12 14.7937 11.8758 15.1116 11.6629C15.0746 11.6653 15.0373 11.6666 14.9997 11.6666C14.0792 11.6666 13.333 10.9204 13.333 9.99992C13.333 9.07944 14.0792 8.33325 14.9997 8.33325C15.0372 8.33325 15.0744 8.33449 15.1113 8.33693C14.7935 8.12412 14.4112 8 14 8C12.8954 8 12 8.89543 12 10C12 11.1046 12.8954 12 14 12ZM16.0003 9.99992C16.0003 10.3681 15.7018 10.6666 15.3337 10.6666C14.9655 10.6666 14.667 10.3681 14.667 9.99992C14.667 9.63173 14.9655 9.33325 15.3337 9.33325C15.7018 9.33325 16.0003 9.63173 16.0003 9.99992Z" fill="white"/>
</g>
</g>
<defs>
<filter id="filter0_d_36_155476" x="12" y="8" width="4" height="5" filterUnits="userSpaceOnUse" color-interpolation-filters="sRGB">
<feFlood flood-opacity="0" result="BackgroundImageFix"/>
<feColorMatrix in="SourceAlpha" type="matrix" values="0 0 0 0 0 0 0 0 0 0 0 0 0 0 0 0 0 0 127 0" result="hardAlpha"/>
<feOffset dy="1"/>
<feColorMatrix type="matrix" values="0 0 0 0 0 0 0 0 0 0 0 0 0 0 0 0 0 0 0.06 0"/>
<feBlend mode="normal" in2="BackgroundImageFix" result="effect1_dropShadow_36_155476"/>
<feBlend mode="normal" in="SourceGraphic" in2="effect1_dropShadow_36_155476" result="shape"/>
</filter>
</defs>
</svg>
