<svg width="24" height="24" viewBox="0 0 24 24" fill="none" xmlns="http://www.w3.org/2000/svg">
<path d="M19.9402 9.37668C19.3862 8.07561 18.5213 6.93042 17.4214 6.04165C16.3215 5.15287 15.0202 4.54769 13.6318 4.27921L14.4885 2.90854C14.708 2.55729 14.6013 2.09457 14.25 1.87504C13.8987 1.65551 13.436 1.76228 13.2165 2.11354L11.9591 4.12541C10.2734 4.13323 8.62685 4.63475 7.223 5.56801C5.81915 6.50126 4.71948 7.82535 4.05985 9.37668C3.17628 9.39347 2.33457 9.75626 1.71565 10.3871C1.09673 11.0179 0.75 11.8663 0.75 12.75C0.75 13.6338 1.09673 14.4822 1.71565 15.113C2.33457 15.7438 3.17628 16.1066 4.05985 16.1234C4.72229 17.6811 5.82828 19.0096 7.24012 19.9434C8.65196 20.8772 10.3073 21.375 12 21.375C13.6927 21.375 15.348 20.8772 16.7599 19.9434C18.1717 19.0096 19.2777 17.6811 19.9402 16.1234C20.8237 16.1066 21.6654 15.7438 22.2844 15.113C22.9033 14.4822 23.25 13.6338 23.25 12.75C23.25 11.8663 22.9033 11.0179 22.2844 10.3871C21.6654 9.75626 20.8237 9.39347 19.9402 9.37668ZM21.2129 14.063C20.8699 14.4139 20.4023 14.6153 19.9117 14.6237L18.9402 14.6421L18.5599 15.5362C18.0127 16.8233 17.099 17.9209 15.9326 18.6925C14.7662 19.464 13.3985 19.8754 12 19.8754C10.6015 19.8754 9.23389 19.464 8.06747 18.6925C6.90104 17.9209 5.98735 16.8233 5.44017 15.5362L5.05983 14.6421L4.08835 14.6237C3.5975 14.6145 3.12986 14.4131 2.78598 14.0627C2.4421 13.7123 2.24944 13.241 2.24944 12.75C2.24944 12.2591 2.4421 11.7878 2.78598 11.4374C3.12986 11.087 3.5975 10.8856 4.08835 10.8764L5.05983 10.8579L5.44017 9.96384C5.98737 8.67682 6.90107 7.57921 8.06749 6.80766C9.23391 6.03612 10.6015 5.62473 12 5.62473C13.3985 5.62473 14.7661 6.03612 15.9326 6.80766C17.099 7.57921 18.0127 8.67682 18.5599 9.96384L18.9402 10.8579L19.9117 10.8764C20.2778 10.8833 20.6338 10.9974 20.9358 11.2044C21.2378 11.4115 21.4725 11.7025 21.611 12.0415C21.7494 12.3805 21.7855 12.7526 21.7147 13.1119C21.644 13.4711 21.4695 13.8018 21.2129 14.063Z" fill="#1C212D"/>
<path d="M7.875 11.8125C7.875 11.2947 8.29473 10.875 8.8125 10.875C9.33027 10.875 9.75 11.2947 9.75 11.8125C9.75 12.3303 9.33027 12.75 8.8125 12.75C8.29473 12.75 7.875 12.3303 7.875 11.8125ZM14.25 11.8125C14.25 11.2947 14.6697 10.875 15.1875 10.875C15.7053 10.875 16.125 11.2947 16.125 11.8125C16.125 12.3303 15.7053 12.75 15.1875 12.75C14.6697 12.75 14.25 12.3303 14.25 11.8125ZM12 18C12.4925 18 12.9801 17.903 13.4351 17.7145C13.89 17.5261 14.3034 17.2499 14.6517 16.9017C14.9999 16.5534 15.2761 16.14 15.4645 15.6851C15.7758 14.9337 15.0907 14.25 14.2774 14.25H9.72261C8.90931 14.25 8.22421 14.9337 8.53545 15.6851C8.72391 16.14 9.00013 16.5534 9.34835 16.9017C10.0516 17.6049 11.0054 18 12 18Z" fill="#1C212D"/>
</svg>
