<svg width="62" height="34" viewBox="0 0 62 34" fill="none" xmlns="http://www.w3.org/2000/svg">
<path d="M0 7C0 3.13401 3.13401 0 7 0H55C58.866 0 62 3.13401 62 7V27C62 30.866 58.866 34 55 34H7C3.13401 34 0 30.866 0 27V7Z" fill="white"/>
<path d="M41 24V27H21V24C21 23.45 21.45 23 22 23H40C40.55 23 41 23.45 41 24Z" fill="#4FC168" stroke="#4FC168" stroke-width="1.5" stroke-miterlimit="10" stroke-linecap="round" stroke-linejoin="round"/>
<path d="M26 16H24V23H26V16Z" fill="#4FC168"/>
<path d="M30 16H28V23H30V16Z" fill="#4FC168"/>
<path d="M34 16H32V23H34V16Z" fill="#4FC168"/>
<path d="M38 16H36V23H38V16Z" fill="#4FC168"/>
<path d="M42 27.75H20C19.59 27.75 19.25 27.41 19.25 27C19.25 26.59 19.59 26.25 20 26.25H42C42.41 26.25 42.75 26.59 42.75 27C42.75 27.41 42.41 27.75 42 27.75Z" fill="#4FC168"/>
<path d="M40.37 10.75L31.37 7.15C31.17 7.07 30.83 7.07 30.63 7.15L21.63 10.75C21.28 10.89 21 11.3 21 11.68V15C21 15.55 21.45 16 22 16H40C40.55 16 41 15.55 41 15V11.68C41 11.3 40.72 10.89 40.37 10.75ZM31 13.5C30.17 13.5 29.5 12.83 29.5 12C29.5 11.17 30.17 10.5 31 10.5C31.83 10.5 32.5 11.17 32.5 12C32.5 12.83 31.83 13.5 31 13.5Z" fill="#4FC168"/>
<path d="M7 1H55V-1H7V1ZM61 7V27H63V7H61ZM55 33H7V35H55V33ZM1 27V7H-1V27H1ZM7 33C3.68629 33 1 30.3137 1 27H-1C-1 31.4183 2.58172 35 7 35V33ZM61 27C61 30.3137 58.3137 33 55 33V35C59.4183 35 63 31.4183 63 27H61ZM55 1C58.3137 1 61 3.68629 61 7H63C63 2.58172 59.4183 -1 55 -1V1ZM7 -1C2.58172 -1 -1 2.58172 -1 7H1C1 3.68629 3.68629 1 7 1V-1Z" fill="#E6E9EE"/>
</svg>
