<svg width="40" height="40" viewBox="0 0 40 40" fill="none" xmlns="http://www.w3.org/2000/svg">
<path d="M0 12C0 5.37258 5.37258 0 12 0H28C34.6274 0 40 5.37258 40 12V28C40 34.6274 34.6274 40 28 40H12C5.37258 40 0 34.6274 0 28V12Z" fill="white"/>
<path fill-rule="evenodd" clip-rule="evenodd" d="M13.25 20C13.25 19.5858 13.5858 19.25 14 19.25H26C26.4142 19.25 26.75 19.5858 26.75 20C26.75 20.4142 26.4142 20.75 26 20.75H14C13.5858 20.75 13.25 20.4142 13.25 20Z" fill="#1C212D"/>
<path fill-rule="evenodd" clip-rule="evenodd" d="M20 13.25C20.4142 13.25 20.75 13.5858 20.75 14V26C20.75 26.4142 20.4142 26.75 20 26.75C19.5858 26.75 19.25 26.4142 19.25 26V14C19.25 13.5858 19.5858 13.25 20 13.25Z" fill="#1C212D"/>
<path d="M12 1H28V-1H12V1ZM39 12V28H41V12H39ZM28 39H12V41H28V39ZM1 28V12H-1V28H1ZM12 39C5.92487 39 1 34.0751 1 28H-1C-1 35.1797 4.8203 41 12 41V39ZM39 28C39 34.0751 34.0751 39 28 39V41C35.1797 41 41 35.1797 41 28H39ZM28 1C34.0751 1 39 5.92487 39 12H41C41 4.8203 35.1797 -1 28 -1V1ZM12 -1C4.8203 -1 -1 4.8203 -1 12H1C1 5.92487 5.92487 1 12 1V-1Z" fill="#E6E9EE"/>
</svg>
