<svg width="28" height="20" viewBox="0 0 28 20" fill="none" xmlns="http://www.w3.org/2000/svg">
<rect width="28" height="20" rx="2" fill="white"/>
<mask id="mask0_36_155589" style="mask-type:alpha" maskUnits="userSpaceOnUse" x="0" y="0" width="28" height="20">
<rect width="28" height="20" rx="2" fill="white"/>
</mask>
<g mask="url(#mask0_36_155589)">
<path fill-rule="evenodd" clip-rule="evenodd" d="M0 13.3333H28V0H0V13.3333Z" fill="#E54252"/>
<path fill-rule="evenodd" clip-rule="evenodd" d="M0 20H28V13.3333H0V20Z" fill="#5CBE6B"/>
<path fill-rule="evenodd" clip-rule="evenodd" d="M0 0H4V2.99951L3.33301 4L4 5.00049V6.99951L3.33301 8L4 9.00049V10.9995L3.33301 12L4 13.0005V14.9995L3.33301 16L4 17.0005V20H0V0Z" fill="white"/>
<path fill-rule="evenodd" clip-rule="evenodd" d="M-0.666667 2L-2 4L-0.666667 6L-2 8L-0.666667 10L-2 12L-0.666667 14L-2 16L-0.666667 18L0.666667 16L-0.666667 14L0.666667 12L-0.666667 10L0.666667 8L-0.666667 6L0.666667 4L-0.666667 2Z" fill="#E54252"/>
<path fill-rule="evenodd" clip-rule="evenodd" d="M0.666992 2L2.00033 0L3.33366 2L2.00033 4L0.666992 2ZM2.00033 8L0.666992 6L2.00033 4L3.33366 6L2.00033 8ZM2.00033 12L0.666992 10L2.00033 8L3.33366 10L2.00033 12ZM2.00033 16L3.33366 14L2.00033 12L0.666992 14L2.00033 16ZM2.00033 16L3.33366 18L2.00033 20L0.666992 18L2.00033 16Z" fill="#E54252"/>
</g>
</svg>
