<svg width="16" height="16" viewBox="0 0 16 16" fill="none" xmlns="http://www.w3.org/2000/svg">
<path d="M12.0004 3.99992C11.5938 3.99992 11.2204 3.76659 11.0338 3.40659L10.5538 2.43992C10.2471 1.83325 9.4471 1.33325 8.7671 1.33325H7.24044C6.55377 1.33325 5.75377 1.83325 5.4471 2.43992L4.9671 3.40659C4.78044 3.76659 4.4071 3.99992 4.00044 3.99992C2.55377 3.99992 1.4071 5.21992 1.50044 6.65992L1.8471 12.1666C1.9271 13.5399 2.6671 14.6666 4.5071 14.6666H11.4938C13.3338 14.6666 14.0671 13.5399 14.1538 12.1666L14.5004 6.65992C14.5938 5.21992 13.4471 3.99992 12.0004 3.99992ZM7.00044 4.83325H9.00044C9.27377 4.83325 9.50044 5.05992 9.50044 5.33325C9.50044 5.60659 9.27377 5.83325 9.00044 5.83325H7.00044C6.7271 5.83325 6.50044 5.60659 6.50044 5.33325C6.50044 5.05992 6.7271 4.83325 7.00044 4.83325ZM8.00044 12.0799C6.76044 12.0799 5.7471 11.0733 5.7471 9.82659C5.7471 8.57992 6.75377 7.57325 8.00044 7.57325C9.2471 7.57325 10.2538 8.57992 10.2538 9.82659C10.2538 11.0733 9.24044 12.0799 8.00044 12.0799Z" fill="white"/>
</svg>
