<svg width="36" height="36" viewBox="0 0 36 36" fill="none" xmlns="http://www.w3.org/2000/svg">
<path fill-rule="evenodd" clip-rule="evenodd" d="M10.8412 10.8406C11.2806 10.4013 11.9929 10.4013 12.4322 10.8406L25.1601 23.5685C25.5995 24.0079 25.5995 24.7202 25.1601 25.1595C24.7208 25.5989 24.0085 25.5989 23.5691 25.1595L10.8412 12.4316C10.4019 11.9923 10.4019 11.2799 10.8412 10.8406Z" fill="white"/>
<path fill-rule="evenodd" clip-rule="evenodd" d="M25.1588 10.8406C25.5981 11.2799 25.5981 11.9923 25.1588 12.4316L12.4309 25.1595C11.9915 25.5989 11.2792 25.5989 10.8399 25.1595C10.4005 24.7202 10.4005 24.0079 10.8399 23.5685L23.5678 10.8406C24.0071 10.4013 24.7194 10.4013 25.1588 10.8406Z" fill="white"/>
</svg>
