<svg width="24" height="24" viewBox="0 0 24 24" fill="none" xmlns="http://www.w3.org/2000/svg">
<path fill-rule="evenodd" clip-rule="evenodd" d="M7 13.75C7 13.3358 7.33579 13 7.75 13H8.75C9.16421 13 9.5 13.3358 9.5 13.75C9.5 14.1642 9.16421 14.5 8.75 14.5H7.75C7.33579 14.5 7 14.1642 7 13.75ZM14 13.75C14 13.3358 14.3358 13 14.75 13H15.75C16.1642 13 16.5 13.3358 16.5 13.75C16.5 14.1642 16.1642 14.5 15.75 14.5H14.75C14.3358 14.5 14 14.1642 14 13.75Z" fill="#1C212D"/>
<path fill-rule="evenodd" clip-rule="evenodd" d="M2.39541 1.39541C2.64858 1.14223 2.99196 1 3.35 1H20.15C20.508 1 20.8514 1.14223 21.1046 1.39541C21.3578 1.64858 21.5 1.99196 21.5 2.35V21.15C21.5 21.508 21.3578 21.8514 21.1046 22.1046C20.8514 22.3578 20.508 22.5 20.15 22.5H3.35C2.99196 22.5 2.64858 22.3578 2.39541 22.1046C2.14223 21.8514 2 21.508 2 21.15V2.35C2 1.99196 2.14223 1.64858 2.39541 1.39541ZM12.5 21H20V2.5H12.5V21ZM11 2.5V21H3.5V2.5H11Z" fill="#1C212D"/>
</svg>
