<svg width="20" height="20" viewBox="0 0 20 20" fill="none" xmlns="http://www.w3.org/2000/svg">
<path fill-rule="evenodd" clip-rule="evenodd" d="M6.0229 6.02251C6.26698 5.77843 6.66271 5.77843 6.90679 6.02251L13.9779 13.0936C14.2219 13.3377 14.2219 13.7334 13.9779 13.9775C13.7338 14.2215 13.338 14.2215 13.094 13.9775L6.0229 6.90639C5.77882 6.66231 5.77882 6.26659 6.0229 6.02251Z" fill="#AFB5C0"/>
<path fill-rule="evenodd" clip-rule="evenodd" d="M13.9771 6.02251C14.2212 6.26659 14.2212 6.66231 13.9771 6.90639L6.90603 13.9775C6.66195 14.2215 6.26622 14.2215 6.02215 13.9775C5.77807 13.7334 5.77807 13.3377 6.02215 13.0936L13.0932 6.02251C13.3373 5.77843 13.733 5.77843 13.9771 6.02251Z" fill="#AFB5C0"/>
</svg>
