<svg width="40" height="40" viewBox="0 0 40 40" fill="none" xmlns="http://www.w3.org/2000/svg">
<path d="M24.9218 21.229C31.04 21.229 35.9998 19.0246 35.9998 16.3054C35.9998 13.5862 31.04 11.3818 24.9218 11.3818C18.8036 11.3818 13.8438 13.5862 13.8438 16.3054C13.8438 19.0246 18.8036 21.229 24.9218 21.229Z" stroke="#4E545F" stroke-width="2.85714" stroke-linecap="round" stroke-linejoin="round"/>
<path d="M13.8438 16.3056V31.0764C13.8438 33.7843 18.7673 35.9999 24.9218 35.9999C31.0763 35.9999 35.9998 33.7843 35.9998 31.0764V16.3056" stroke="#4E545F" stroke-width="2.85714" stroke-linecap="round" stroke-linejoin="round"/>
<path d="M35.9998 23.6909C35.9998 26.3988 31.0763 28.6144 24.9218 28.6144C18.7673 28.6144 13.8438 26.3988 13.8438 23.6909" stroke="#4E545F" stroke-width="2.85714" stroke-linecap="round" stroke-linejoin="round"/>
<path d="M24.6761 6.45825C21.7995 4.68299 18.451 3.82442 15.0751 3.99646C8.94526 3.99646 3.99707 6.21207 3.99707 8.92003C3.99707 10.3725 5.42491 11.6772 7.68975 12.6127" stroke="#4E545F" stroke-width="2.85714" stroke-linecap="round" stroke-linejoin="round"/>
<path d="M7.68975 27.3831C5.42491 26.4476 3.99707 25.1429 3.99707 23.6904V8.91971" stroke="#4E545F" stroke-width="2.85714" stroke-linecap="round" stroke-linejoin="round"/>
<path d="M7.68975 19.9981C5.42491 19.0626 3.99707 17.7578 3.99707 16.3054" stroke="#4E545F" stroke-width="2.85714" stroke-linecap="round" stroke-linejoin="round"/>
</svg>
