<svg width="16" height="16" viewBox="0 0 16 16" fill="none" xmlns="http://www.w3.org/2000/svg">
<path fill-rule="evenodd" clip-rule="evenodd" d="M2.44489 6.44514C2.05954 6.83049 1.83301 7.48257 1.83301 8.59992V11.3999C1.83301 12.5173 2.05954 13.1693 2.44489 13.5547C2.83025 13.9401 3.48232 14.1666 4.59967 14.1666H7.39967C8.51703 14.1666 9.1691 13.9401 9.55445 13.5547C9.93981 13.1693 10.1663 12.5173 10.1663 11.3999V8.59992C10.1663 7.48257 9.93981 6.83049 9.55445 6.44514C9.1691 6.05978 8.51703 5.83325 7.39967 5.83325H4.59967C3.48232 5.83325 2.83025 6.05978 2.44489 6.44514ZM1.73779 5.73803C2.40243 5.07339 3.38369 4.83325 4.59967 4.83325H7.39967C8.61566 4.83325 9.59692 5.07339 10.2616 5.73803C10.9262 6.40268 11.1663 7.38394 11.1663 8.59992V11.3999C11.1663 12.6159 10.9262 13.5972 10.2616 14.2618C9.59692 14.9265 8.61566 15.1666 7.39967 15.1666H4.59967C3.38369 15.1666 2.40243 14.9265 1.73779 14.2618C1.07314 13.5972 0.833008 12.6159 0.833008 11.3999V8.59992C0.833008 7.38394 1.07314 6.40268 1.73779 5.73803Z" fill="#1C212D"/>
<path fill-rule="evenodd" clip-rule="evenodd" d="M6.44489 2.44514C6.05954 2.83049 5.83301 3.48257 5.83301 4.59992V4.83325H7.39967C8.61566 4.83325 9.59691 5.07339 10.2616 5.73803C10.9262 6.40268 11.1663 7.38394 11.1663 8.59992V10.1666H11.3997C12.517 10.1666 13.1691 9.94005 13.5545 9.5547C13.9398 9.16934 14.1663 8.51727 14.1663 7.39992V4.59992C14.1663 3.48257 13.9398 2.83049 13.5545 2.44514C13.1691 2.05978 12.517 1.83325 11.3997 1.83325H8.59967C7.48232 1.83325 6.83025 2.05978 6.44489 2.44514ZM5.73779 1.73803C6.40243 1.07339 7.38369 0.833252 8.59967 0.833252H11.3997C12.6157 0.833252 13.5969 1.07339 14.2616 1.73803C14.9262 2.40268 15.1663 3.38394 15.1663 4.59992V7.39992C15.1663 8.6159 14.9262 9.59716 14.2616 10.2618C13.5969 10.9265 12.6157 11.1666 11.3997 11.1666H10.6663C10.3902 11.1666 10.1663 10.9427 10.1663 10.6666V8.59992C10.1663 7.48257 9.93981 6.83049 9.55445 6.44514C9.1691 6.05978 8.51703 5.83325 7.39967 5.83325H5.33301C5.05687 5.83325 4.83301 5.60939 4.83301 5.33325V4.59992C4.83301 3.38394 5.07314 2.40268 5.73779 1.73803Z" fill="#1C212D"/>
</svg>
