<svg width="24" height="24" viewBox="0 0 24 24" fill="none" xmlns="http://www.w3.org/2000/svg">
<path fill-rule="evenodd" clip-rule="evenodd" d="M7.22748 7.22699C7.52038 6.93409 7.99525 6.93409 8.28814 7.22699L16.7734 15.7123C17.0663 16.0052 17.0663 16.48 16.7734 16.7729C16.4805 17.0658 16.0057 17.0658 15.7128 16.7729L7.22748 8.28765C6.93459 7.99475 6.93459 7.51988 7.22748 7.22699Z" fill="#1C212D"/>
<path fill-rule="evenodd" clip-rule="evenodd" d="M16.7725 7.22699C17.0654 7.51988 17.0654 7.99475 16.7725 8.28765L8.28724 16.7729C7.99434 17.0658 7.51947 17.0658 7.22658 16.7729C6.93368 16.48 6.93368 16.0052 7.22658 15.7123L15.7119 7.22699C16.0048 6.93409 16.4796 6.93409 16.7725 7.22699Z" fill="#1C212D"/>
</svg>
