<svg width="24" height="24" viewBox="0 0 24 24" fill="none" xmlns="http://www.w3.org/2000/svg">
<path fill-rule="evenodd" clip-rule="evenodd" d="M10.9502 12C10.9502 11.4477 11.3979 11 11.9502 11H12.0502C12.6025 11 13.0502 11.4477 13.0502 12C13.0502 12.5523 12.6025 13 12.0502 13H11.9502C11.3979 13 10.9502 12.5523 10.9502 12Z" fill="#1C212D"/>
<path fill-rule="evenodd" clip-rule="evenodd" d="M6.16989 5.10923C6.46297 5.40194 6.46326 5.87682 6.17055 6.16989C4.6256 7.71677 3.75781 9.81364 3.75781 11.9999C3.75781 14.1861 4.6256 16.283 6.17055 17.8299C6.46326 18.123 6.46297 18.5978 6.16989 18.8906C5.87682 19.1833 5.40194 19.183 5.10923 18.8899C3.28338 17.0618 2.25781 14.5837 2.25781 11.9999C2.25781 9.41613 3.28338 6.93802 5.10923 5.10989C5.40194 4.81682 5.87682 4.81652 6.16989 5.10923Z" fill="#1C212D"/>
<path fill-rule="evenodd" clip-rule="evenodd" d="M8.99115 7.9303C9.28367 8.22356 9.28307 8.69844 8.98981 8.99096C8.59402 9.38575 8.28001 9.85474 8.06575 10.3711C7.8515 10.8874 7.74121 11.4409 7.74121 12C7.74121 12.559 7.8515 13.1125 8.06575 13.6288C8.28001 14.1452 8.59402 14.6142 8.98981 15.009C9.28307 15.3015 9.28367 15.7764 8.99115 16.0696C8.69863 16.3629 8.22375 16.3635 7.93049 16.071C7.39501 15.5368 6.97017 14.9023 6.6803 14.2037C6.39042 13.5052 6.24121 12.7563 6.24121 12C6.24121 11.2436 6.39042 10.4947 6.6803 9.79617C6.97017 9.09761 7.39501 8.46309 7.93049 7.92896C8.22375 7.63644 8.69863 7.63704 8.99115 7.9303Z" fill="#1C212D"/>
<path fill-rule="evenodd" clip-rule="evenodd" d="M17.8304 5.10923C18.1234 4.81652 18.5983 4.81682 18.891 5.10989C20.7169 6.93802 21.7424 9.41613 21.7424 11.9999C21.7424 14.5837 20.7169 17.0618 18.891 18.8899C18.5983 19.183 18.1234 19.1833 17.8304 18.8906C17.5373 18.5978 17.537 18.123 17.8297 17.8299C19.3746 16.283 20.2424 14.1862 20.2424 11.9999C20.2424 9.81364 19.3746 7.71677 17.8297 6.16989C17.537 5.87682 17.5373 5.40194 17.8304 5.10923Z" fill="#1C212D"/>
<path fill-rule="evenodd" clip-rule="evenodd" d="M15.009 7.9303C15.3016 7.63704 15.7764 7.63644 16.0697 7.92896C16.6052 8.46309 17.03 9.09761 17.3199 9.79617C17.6098 10.4947 17.759 11.2436 17.759 12C17.759 12.7563 17.6098 13.5052 17.3199 14.2037C17.03 14.9023 16.6052 15.5368 16.0697 16.071C15.7764 16.3635 15.3016 16.3629 15.009 16.0696C14.7165 15.7764 14.7171 15.3015 15.0104 15.009C15.4062 14.6142 15.7202 14.1452 15.9344 13.6288C16.1487 13.1125 16.259 12.559 16.259 12C16.259 11.4409 16.1487 10.8874 15.9344 10.3711C15.7202 9.85474 15.4062 9.38575 15.0104 8.99096C14.7171 8.69844 14.7165 8.22356 15.009 7.9303Z" fill="#1C212D"/>
</svg>
