<svg width="20" height="20" viewBox="0 0 20 20" fill="none" xmlns="http://www.w3.org/2000/svg">
<path fill-rule="evenodd" clip-rule="evenodd" d="M10.0003 1.3999C10.3317 1.3999 10.6003 1.66853 10.6003 1.9999V11.218L13.576 8.24231C13.8104 8.00799 14.1903 8.00799 14.4246 8.24231C14.6589 8.47662 14.6589 8.85652 14.4246 9.09083L10.4246 13.0908C10.1903 13.3251 9.81036 13.3251 9.57605 13.0908L5.57605 9.09083C5.34173 8.85652 5.34173 8.47662 5.57605 8.24231C5.81036 8.00799 6.19026 8.00799 6.42457 8.24231L9.40031 11.218V1.9999C9.40031 1.66853 9.66894 1.3999 10.0003 1.3999ZM3.33366 13.3333C3.70185 13.3333 4.00033 13.6317 4.00033 13.9999V15.9999C4.00033 16.7384 4.59453 17.3333 5.32879 17.3333H14.6685C15.4042 17.3333 16.0003 16.737 16.0003 15.9999V13.9999C16.0003 13.6317 16.2988 13.3333 16.667 13.3333C17.0352 13.3333 17.3337 13.6317 17.3337 13.9999V15.9999C17.3337 17.472 16.142 18.6666 14.6685 18.6666H5.32879C3.85392 18.6666 2.66699 17.4706 2.66699 15.9999V13.9999C2.66699 13.6317 2.96547 13.3333 3.33366 13.3333Z" fill="black"/>
</svg>
