<svg width="24" height="24" viewBox="0 0 24 24" fill="none" xmlns="http://www.w3.org/2000/svg">
<path fill-rule="evenodd" clip-rule="evenodd" d="M6 4.75C5.86193 4.75 5.75 4.86193 5.75 5V19C5.75 19.1381 5.86193 19.25 6 19.25H18C18.1381 19.25 18.25 19.1381 18.25 19V5C18.25 4.86193 18.1381 4.75 18 4.75H6ZM4.25 5C4.25 4.0335 5.0335 3.25 6 3.25H18C18.9665 3.25 19.75 4.0335 19.75 5V19C19.75 19.9665 18.9665 20.75 18 20.75H6C5.0335 20.75 4.25 19.9665 4.25 19V5Z" fill="#1C212D"/>
<path fill-rule="evenodd" clip-rule="evenodd" d="M12 7.25C12.1989 7.25 12.3897 7.32902 12.5303 7.46967L14.5303 9.46967C14.8232 9.76256 14.8232 10.2374 14.5303 10.5303C14.2374 10.8232 13.7626 10.8232 13.4697 10.5303L12 9.06066L10.5303 10.5303C10.2374 10.8232 9.76256 10.8232 9.46967 10.5303C9.17678 10.2374 9.17678 9.76256 9.46967 9.46967L11.4697 7.46967C11.6103 7.32902 11.8011 7.25 12 7.25ZM9.46967 13.4697C9.76256 13.1768 10.2374 13.1768 10.5303 13.4697L12 14.9393L13.4697 13.4697C13.7626 13.1768 14.2374 13.1768 14.5303 13.4697C14.8232 13.7626 14.8232 14.2374 14.5303 14.5303L12.5303 16.5303C12.3897 16.671 12.1989 16.75 12 16.75C11.8011 16.75 11.6103 16.671 11.4697 16.5303L9.46967 14.5303C9.17678 14.2374 9.17678 13.7626 9.46967 13.4697Z" fill="#1C212D"/>
</svg>
