<svg width="16" height="16" viewBox="0 0 16 16" fill="none" xmlns="http://www.w3.org/2000/svg">
<path fill-rule="evenodd" clip-rule="evenodd" d="M7.99995 6.11328C6.95609 6.11328 6.11328 6.95609 6.11328 7.99995C6.11328 8.3402 6.20257 8.65761 6.36014 8.93265L8.93265 6.36014C8.65761 6.20257 8.3402 6.11328 7.99995 6.11328ZM5.11328 7.99995C5.11328 6.40381 6.40381 5.11328 7.99995 5.11328C8.79849 5.11328 9.51735 5.43691 10.0402 5.95973C10.2354 6.15499 10.2354 6.47157 10.0402 6.66683L6.66683 10.0402C6.47157 10.2354 6.15499 10.2354 5.95973 10.0402C5.43691 9.51735 5.11328 8.79849 5.11328 7.99995Z" fill="#1C212D"/>
<path fill-rule="evenodd" clip-rule="evenodd" d="M1.50489 6.00455C3.09884 3.49897 5.43458 1.98657 7.9999 1.98657C9.49965 1.98657 10.9369 2.50898 12.181 3.4474C12.4014 3.61368 12.4454 3.92721 12.2791 4.14767C12.1128 4.36813 11.7993 4.41204 11.5788 4.24575C10.4896 3.42417 9.26015 2.98657 7.9999 2.98657C5.85866 2.98657 3.80783 4.24737 2.34844 6.5416L2.34802 6.54226C2.11163 6.9126 1.97656 7.44274 1.97656 8.00324C1.97656 8.56374 2.11163 9.09388 2.34802 9.46422L2.34825 9.46458C2.85077 10.2533 3.43264 10.9286 4.05925 11.4675C4.26862 11.6475 4.29238 11.9632 4.11232 12.1726C3.93227 12.382 3.61658 12.4057 3.40721 12.2257C2.70049 11.6179 2.05569 10.8665 1.50487 10.0019C1.14142 9.43229 0.976562 8.70259 0.976562 8.00324C0.976562 7.30388 1.14143 6.57416 1.50489 6.00455Z" fill="#1C212D"/>
<path fill-rule="evenodd" clip-rule="evenodd" d="M13.0534 4.89703C13.2685 4.72396 13.5833 4.75809 13.7564 4.97326C14.0123 5.29144 14.2637 5.63334 14.4956 5.99873C14.8587 6.56822 15.0234 7.29759 15.0234 7.99664C15.0234 8.696 14.8585 9.42572 14.4951 9.99533C12.9011 12.5009 10.5654 14.0133 8.00008 14.0133C7.10905 14.0133 6.23663 13.8249 5.41938 13.4808C5.16488 13.3736 5.04543 13.0804 5.15259 12.8259C5.25975 12.5714 5.55294 12.452 5.80744 12.5592C6.51019 12.8551 7.2511 13.0133 8.00008 13.0133C10.1413 13.0133 12.1921 11.7525 13.6515 9.45828L13.652 9.45762C13.8883 9.08728 14.0234 8.55714 14.0234 7.99664C14.0234 7.43614 13.8883 6.906 13.652 6.53566L13.6512 6.53455C13.4431 6.2066 13.2145 5.89517 12.9771 5.60002C12.8041 5.38484 12.8382 5.07011 13.0534 4.89703Z" fill="#1C212D"/>
<path fill-rule="evenodd" clip-rule="evenodd" d="M10.4307 7.97493C10.7023 8.02501 10.8818 8.28575 10.8318 8.55731C10.6208 9.70121 9.69462 10.6274 8.55072 10.8384C8.27915 10.8884 8.01841 10.7089 7.96834 10.4373C7.91826 10.1657 8.09782 9.90501 8.36938 9.85493C9.10548 9.7192 9.7126 9.11207 9.84834 8.37597C9.89841 8.10441 10.1592 7.92485 10.4307 7.97493Z" fill="#1C212D"/>
<path fill-rule="evenodd" clip-rule="evenodd" d="M6.66656 9.33309C6.86182 9.52835 6.86182 9.84494 6.66656 10.0402L1.68656 15.0202C1.4913 15.2155 1.17472 15.2155 0.979454 15.0202C0.784192 14.8249 0.784192 14.5084 0.979454 14.3131L5.95945 9.33309C6.15472 9.13783 6.4713 9.13783 6.66656 9.33309Z" fill="#1C212D"/>
<path fill-rule="evenodd" clip-rule="evenodd" d="M15.0201 0.979699C15.2153 1.17496 15.2153 1.49154 15.0201 1.68681L10.0401 6.6668C9.84481 6.86207 9.52823 6.86207 9.33297 6.6668C9.13771 6.47154 9.13771 6.15496 9.33297 5.9597L14.313 0.979699C14.5082 0.784436 14.8248 0.784436 15.0201 0.979699Z" fill="#1C212D"/>
</svg>
