<svg width="16" height="16" viewBox="0 0 16 16" fill="none" xmlns="http://www.w3.org/2000/svg">
<path fill-rule="evenodd" clip-rule="evenodd" d="M7.99995 6.11328C6.95609 6.11328 6.11328 6.95609 6.11328 7.99995C6.11328 9.04381 6.95609 9.88661 7.99995 9.88661C9.04381 9.88661 9.88661 9.04381 9.88661 7.99995C9.88661 6.95609 9.04381 6.11328 7.99995 6.11328ZM5.11328 7.99995C5.11328 6.40381 6.40381 5.11328 7.99995 5.11328C9.59609 5.11328 10.8866 6.40381 10.8866 7.99995C10.8866 9.59609 9.59609 10.8866 7.99995 10.8866C6.40381 10.8866 5.11328 9.59609 5.11328 7.99995Z" fill="#1C212D"/>
<path fill-rule="evenodd" clip-rule="evenodd" d="M1.50489 5.99796C3.09884 3.49238 5.43458 1.97998 7.9999 1.97998C10.5653 1.97998 12.9012 3.49251 14.4951 5.99828C14.8584 6.56784 15.0232 7.29742 15.0232 7.99665C15.0232 8.69588 14.8584 9.42545 14.4951 9.99501C12.9012 12.5008 10.5653 14.0133 7.9999 14.0133C5.43446 14.0133 3.09863 12.5008 1.50468 9.99501C1.14137 9.42545 0.976562 8.69588 0.976562 7.99665C0.976562 7.29728 1.14143 6.56756 1.50489 5.99796ZM7.9999 2.97998C5.85866 2.97998 3.80783 4.24078 2.34844 6.53501L2.34802 6.53566C2.11163 6.90601 1.97656 7.43614 1.97656 7.99665C1.97656 8.55715 2.11163 9.08728 2.34802 9.45763L2.34844 9.45828C3.80783 11.7525 5.85866 13.0133 7.9999 13.0133C10.1411 13.0133 12.192 11.7525 13.6514 9.45828L13.6518 9.45763C13.8882 9.08728 14.0232 8.55715 14.0232 7.99665C14.0232 7.43614 13.8882 6.90601 13.6518 6.53566L13.6514 6.53501C12.192 4.24078 10.1411 2.97998 7.9999 2.97998Z" fill="#1C212D"/>
</svg>
