<svg width="48" height="48" viewBox="0 0 48 48" fill="none" xmlns="http://www.w3.org/2000/svg">
<path d="M32.669 3.9996H15.331C8.55298 3.9996 4.00098 8.7556 4.00098 15.8336V32.1676C4.00098 39.2436 8.55298 43.9996 15.331 43.9996H32.667C39.445 43.9996 44.001 39.2436 44.001 32.1676V15.8336C44.001 8.7556 39.447 3.9996 32.669 3.9996Z" fill="white"/>
<path d="M23.1115 35.0001C22.9956 34.9999 22.8805 34.9796 22.7715 34.9401C22.5613 34.8631 22.3829 34.7178 22.2651 34.5274C22.1472 34.337 22.0967 34.1126 22.1215 33.8901L22.8915 26.8001H17.0015C16.8198 26.8003 16.6415 26.7511 16.4857 26.6577C16.3299 26.5643 16.2025 26.4302 16.1172 26.2698C16.0318 26.1094 15.9918 25.9288 16.0014 25.7474C16.011 25.566 16.0698 25.3906 16.1715 25.2401L24.0615 13.4401C24.1863 13.2554 24.3692 13.1177 24.5812 13.0489C24.7931 12.98 25.022 12.984 25.2315 13.0601C25.4329 13.1348 25.6048 13.2725 25.7219 13.4526C25.839 13.6327 25.8949 13.8457 25.8815 14.0601L25.1115 21.2001H31.0015C31.1832 21.1998 31.3615 21.249 31.5173 21.3424C31.6731 21.4359 31.8005 21.57 31.8858 21.7304C31.9712 21.8907 32.0112 22.0713 32.0016 22.2528C31.9921 22.4342 31.9332 22.6096 31.8315 22.7601L23.9415 34.5601C23.8498 34.6958 23.7261 34.8069 23.5814 34.8836C23.4367 34.9603 23.2753 35.0003 23.1115 35.0001Z" fill="#4FC168"/>
</svg>
