<svg width="20" height="20" viewBox="0 0 20 20" fill="none" xmlns="http://www.w3.org/2000/svg">
<path d="M3.64284 18.7046V18.1273V11.9284C3.64284 11.5496 3.79335 11.1862 4.06126 10.9183C4.32917 10.6504 4.69253 10.4999 5.07141 10.4999H14.9286C15.3074 10.4999 15.6708 10.6504 15.9387 10.9183C16.2066 11.1862 16.3571 11.5496 16.3571 11.9284V18.1273V18.7046L16.9286 18.6222C17.4045 18.5535 17.8398 18.3155 18.1547 17.952C18.4695 17.5885 18.6428 17.1237 18.6428 16.6427V5.53072C18.6428 4.99995 18.4327 4.491 18.0563 4.11565C18.0562 4.11559 18.0562 4.11554 18.0561 4.11548L15.8839 1.94329C15.8839 1.94325 15.8839 1.94321 15.8838 1.94316C15.6981 1.75734 15.4776 1.60993 15.2349 1.50935C14.9921 1.40876 14.7319 1.35699 14.4691 1.357C14.4691 1.357 14.4691 1.357 14.4691 1.357H14.2857H13.7857V1.857V5.49986C13.7857 5.68746 13.7487 5.87323 13.677 6.04655C13.6052 6.21987 13.4999 6.37736 13.3673 6.51001C13.2346 6.64267 13.0771 6.7479 12.9038 6.81969C12.7305 6.89148 12.5447 6.92843 12.3571 6.92843H6.7857C6.40682 6.92843 6.04345 6.77792 5.77554 6.51001C5.50764 6.2421 5.35713 5.87874 5.35713 5.49986V1.857V1.357H4.85713H3.35713C2.82669 1.357 2.31798 1.56772 1.94291 1.94279C1.56784 2.31786 1.35713 2.82657 1.35713 3.357V16.6427C1.35714 17.1237 1.53044 17.5885 1.84529 17.952C2.16013 18.3155 2.59542 18.5535 3.07141 18.6222L3.64284 18.7046ZM6.14284 1.357H5.64284V1.857V5.49986C5.64284 6.13086 6.1547 6.64272 6.7857 6.64272H12.3571C12.6602 6.64272 12.9509 6.52231 13.1652 6.30798C13.3796 6.09365 13.5 5.80296 13.5 5.49986V1.857V1.357H13H6.14284ZM15.5714 18.6427H16.0714V18.1427V11.9284C16.0714 11.6253 15.951 11.3346 15.7367 11.1203C15.5223 10.906 15.2317 10.7856 14.9286 10.7856H5.07141C4.76831 10.7856 4.47762 10.906 4.26329 11.1203C4.04896 11.3346 3.92855 11.6253 3.92855 11.9284V18.1427V18.6427H4.42855H15.5714ZM16.0861 1.74083L16.0861 1.74084L18.259 3.9137C18.688 4.34267 18.9286 4.9243 18.9286 5.53072V16.6427C18.9286 17.2489 18.6877 17.8303 18.2591 18.259C17.8304 18.6876 17.249 18.9284 16.6428 18.9284H3.35713C2.75092 18.9284 2.16954 18.6876 1.74088 18.259C1.31223 17.8303 1.07141 17.2489 1.07141 16.6427V3.357C1.07141 2.75079 1.31223 2.16941 1.74088 1.74076C2.16954 1.3121 2.75092 1.07129 3.35713 1.07129H14.47C14.47 1.07129 14.47 1.07129 14.47 1.07129C15.0762 1.07133 15.6575 1.31217 16.0861 1.74083Z" fill="#1C212D" stroke="#1C212D"/>
</svg>
