<svg width="24" height="24" viewBox="0 0 24 24" fill="none" xmlns="http://www.w3.org/2000/svg">
<path d="M6 9.6165V2.25C6 2.05109 6.07902 1.86032 6.21967 1.71967C6.36032 1.57902 6.55109 1.5 6.75 1.5C6.94891 1.5 7.13968 1.57902 7.28033 1.71967C7.42098 1.86032 7.5 2.05109 7.5 2.25V9.6165C7.93887 9.46134 8.31881 9.17388 8.58746 8.79374C8.85611 8.4136 9.00024 7.95949 9 7.494V2.25C9 2.05109 9.07902 1.86032 9.21967 1.71967C9.36032 1.57902 9.55109 1.5 9.75 1.5C9.94891 1.5 10.1397 1.57902 10.2803 1.71967C10.421 1.86032 10.5 2.05109 10.5 2.25V7.494C10.5002 8.35849 10.2017 9.19649 9.65498 9.86618C9.1083 10.5359 8.34702 10.9961 7.5 11.169V21.75C7.5 21.9489 7.42098 22.1397 7.28033 22.2803C7.13968 22.421 6.94891 22.5 6.75 22.5C6.55109 22.5 6.36032 22.421 6.21967 22.2803C6.07902 22.1397 6 21.9489 6 21.75V11.169C5.15298 10.9961 4.3917 10.5359 3.84502 9.86618C3.29834 9.19649 2.99982 8.35849 3 7.494V2.25C3 2.05109 3.07902 1.86032 3.21967 1.71967C3.36032 1.57902 3.55109 1.5 3.75 1.5C3.94891 1.5 4.13968 1.57902 4.28033 1.71967C4.42098 1.86032 4.5 2.05109 4.5 2.25V7.494C4.49976 7.95949 4.64389 8.4136 4.91254 8.79374C5.18119 9.17388 5.56113 9.46134 6 9.6165ZM15.75 13.4175C13.6215 12.9405 12 10.473 12 7.5C12 4.185 14.0145 1.5 16.5 1.5C18.9855 1.5 21 4.185 21 7.5C21 10.473 19.3785 12.9405 17.25 13.4175V21.75C17.25 21.9489 17.171 22.1397 17.0303 22.2803C16.8897 22.421 16.6989 22.5 16.5 22.5C16.3011 22.5 16.1103 22.421 15.9697 22.2803C15.829 22.1397 15.75 21.9489 15.75 21.75V13.4175ZM16.5 12C18.048 12 19.5 10.065 19.5 7.5C19.5 4.935 18.048 3 16.5 3C14.952 3 13.5 4.935 13.5 7.5C13.5 10.065 14.952 12 16.5 12Z" fill="#1C212D"/>
</svg>
