<svg width="24" height="24" viewBox="0 0 24 24" fill="none" xmlns="http://www.w3.org/2000/svg">
<g clip-path="url(#clip0_36_158326)">
<path fill-rule="evenodd" clip-rule="evenodd" d="M11.6243 3.35093C11.8568 3.21636 12.1435 3.21636 12.3759 3.35093L21.8759 8.85093C22.2344 9.05847 22.3567 9.51731 22.1492 9.87578C21.9417 10.2342 21.4828 10.3566 21.1243 10.1491L12.5012 5.1567C12.1912 4.97727 11.809 4.97727 11.4991 5.1567L2.8759 10.1491C2.51743 10.3566 2.05859 10.2342 1.85105 9.87578C1.64352 9.51731 1.76588 9.05847 2.12435 8.85093L11.6243 3.35093Z" fill="#1C212D"/>
<path fill-rule="evenodd" clip-rule="evenodd" d="M12 15.75C10.8728 15.75 9.79183 16.1978 8.9948 16.9948C8.19777 17.7918 7.75 18.8728 7.75 20V20.25C7.75 20.6642 7.41421 21 7 21V21C6.58579 21 6.25 20.6642 6.25 20.25V20C6.25 18.475 6.8558 17.0125 7.93414 15.9341C9.01247 14.8558 10.475 14.25 12 14.25C13.525 14.25 14.9875 14.8558 16.0659 15.9341C17.1442 17.0125 17.75 18.475 17.75 20V20.25C17.75 20.6642 17.4142 21 17 21V21C16.5858 21 16.25 20.6642 16.25 20.25V20C16.25 18.8728 15.8022 17.7918 15.0052 16.9948C14.2082 16.1978 13.1272 15.75 12 15.75Z" fill="#1C212D"/>
<path fill-rule="evenodd" clip-rule="evenodd" d="M9.34835 9.34835C10.0516 8.64509 11.0054 8.25 12 8.25C12.9946 8.25 13.9484 8.64509 14.6517 9.34835C15.3549 10.0516 15.75 11.0054 15.75 12C15.75 12.9946 15.3549 13.9484 14.6517 14.6517C13.9484 15.3549 12.9946 15.75 12 15.75C11.0054 15.75 10.0516 15.3549 9.34835 14.6517C8.64509 13.9484 8.25 12.9946 8.25 12C8.25 11.0054 8.64509 10.0516 9.34835 9.34835ZM12 14.25C12.5967 14.25 13.169 14.0129 13.591 13.591C14.0129 13.169 14.25 12.5967 14.25 12C14.25 11.4033 14.0129 10.831 13.591 10.409C13.169 9.98705 12.5967 9.75 12 9.75C11.4033 9.75 10.831 9.98705 10.409 10.409C9.98705 10.831 9.75 11.4033 9.75 12C9.75 12.5967 9.98705 13.169 10.409 13.591C10.831 14.0129 11.4033 14.25 12 14.25Z" fill="#1C212D"/>
</g>
<defs>
<clipPath id="clip0_36_158326">
<rect width="24" height="24" fill="white"/>
</clipPath>
</defs>
</svg>
