<svg width="24" height="24" viewBox="0 0 24 24" fill="none" xmlns="http://www.w3.org/2000/svg">
<path d="M9.59655 10.772L10.756 20.048C10.8086 20.5027 10.6795 20.9598 10.3968 21.3198C10.1141 21.6798 9.70074 21.9136 9.24654 21.9705C8.79234 22.0273 8.33408 21.9024 7.97144 21.6231C7.60879 21.3438 7.37109 20.9326 7.31005 20.479L6.12305 10.984" stroke="#1C212D" stroke-width="1.5" stroke-linecap="round" stroke-linejoin="round"/>
<path d="M22 4.25L14.25 3.125M6.5 2C5.30653 2 4.16193 2.47411 3.31802 3.31802C2.47411 4.16193 2 5.30653 2 6.5C2 7.69347 2.47411 8.83807 3.31802 9.68198C4.16193 10.5259 5.30653 11 6.5 11C7.289 11 8.37 10.9125 9.5965 10.772L15.798 9.761L22 8.75V4.25L14.25 3.125L6.5 2ZM18.5 4.1V8.9V4.1ZM22 8.75L15.798 9.761L22 8.75Z" stroke="#1C212D" stroke-width="1.5" stroke-linecap="round" stroke-linejoin="round"/>
<path d="M8 6.5C8 6.89782 7.84196 7.27936 7.56066 7.56066C7.27936 7.84196 6.89782 8 6.5 8C6.10218 8 5.72064 7.84196 5.43934 7.56066C5.15804 7.27936 5 6.89782 5 6.5C5 6.10218 5.15804 5.72064 5.43934 5.43934C5.72064 5.15804 6.10218 5 6.5 5C6.89782 5 7.27936 5.15804 7.56066 5.43934C7.84196 5.72064 8 6.10218 8 6.5V6.5Z" stroke="#1C212D" stroke-width="1.5" stroke-linecap="round" stroke-linejoin="round"/>
</svg>
