<svg width="24" height="24" viewBox="0 0 24 24" fill="none" xmlns="http://www.w3.org/2000/svg">
<path fill-rule="evenodd" clip-rule="evenodd" d="M7.75198 1.87473C8.35882 1.42017 9.13726 1.25 9.9 1.25H15.5C15.8788 1.25 16.1981 1.53242 16.2444 1.90836C16.2907 2.2843 16.0494 2.63574 15.6819 2.72761L12.75 3.46058V4.75H14.5C14.9142 4.75 15.25 5.08579 15.25 5.5V7.80385C15.6815 7.86613 16.1045 7.98205 16.5091 8.14963C17.146 8.41347 17.7248 8.80018 18.2123 9.28769C18.6998 9.7752 19.0865 10.354 19.3504 10.9909C19.6142 11.6279 19.75 12.3106 19.75 13V13.4885C19.75 13.9027 19.4142 14.2385 19 14.2385C18.5858 14.2385 18.25 13.9027 18.25 13.4885V13C18.25 12.5075 18.153 12.0199 17.9645 11.5649C17.7761 11.11 17.4999 10.6966 17.1517 10.3483C16.8034 10.0001 16.39 9.72391 15.9351 9.53545C15.4801 9.347 14.9925 9.25 14.5 9.25H9.5C8.50544 9.25 7.55161 9.64509 6.84835 10.3483C6.14509 11.0516 5.75 12.0054 5.75 13V17.5C5.75 18.4946 6.14509 19.4484 6.84835 20.1516C7.55161 20.8549 8.50544 21.25 9.5 21.25H12C12.4142 21.25 12.75 21.5858 12.75 22C12.75 22.4142 12.4142 22.75 12 22.75H9.5C8.10761 22.75 6.77226 22.1969 5.78769 21.2123C4.80312 20.2277 4.25 18.8924 4.25 17.5V13C4.25 11.6076 4.80312 10.2723 5.78769 9.28769C6.59374 8.48164 7.63491 7.96476 8.75 7.80383V5.5C8.75 5.08579 9.08579 4.75 9.5 4.75H11.25V3.83558L7.6819 4.72761C7.45785 4.78362 7.22048 4.73328 7.03844 4.59115C6.8564 4.44902 6.75 4.23095 6.75 4C6.75 3.08366 7.11367 2.35287 7.75198 1.87473ZM10.25 6.25V7.75H13.75V6.25H10.25Z" fill="#1C212D"/>
<path fill-rule="evenodd" clip-rule="evenodd" d="M16.4375 19.1435C16.3039 19.4749 16.25 19.7301 16.25 19.885C16.25 20.5957 16.8773 21.25 17.75 21.25C18.6227 21.25 19.25 20.5957 19.25 19.885C19.25 19.7301 19.1961 19.4749 19.0625 19.1435C18.9337 18.8239 18.7505 18.4821 18.5427 18.1692C18.3332 17.8538 18.1147 17.5917 17.9248 17.4184C17.8535 17.3532 17.7947 17.3084 17.75 17.2792C17.7053 17.3084 17.6465 17.3532 17.5752 17.4184C17.3853 17.5917 17.1668 17.8538 16.9573 18.1692C16.7495 18.4821 16.5663 18.8239 16.4375 19.1435ZM17.8195 17.2411C17.8195 17.2411 17.8187 17.2414 17.8173 17.2419C17.8188 17.2413 17.8195 17.241 17.8195 17.2411ZM17.6828 17.2419C17.6813 17.2414 17.6805 17.2411 17.6805 17.2411C17.6805 17.241 17.6812 17.2413 17.6828 17.2419ZM17.0691 15.9397C17.2465 15.8426 17.4814 15.75 17.75 15.75C18.0186 15.75 18.2535 15.8426 18.4309 15.9397C18.6138 16.0399 18.7838 16.1714 18.9364 16.3108C19.2416 16.5895 19.5368 16.9547 19.7923 17.3394C20.0495 17.7268 20.2826 18.1582 20.4537 18.5827C20.6202 18.9956 20.75 19.4557 20.75 19.885C20.75 21.5103 19.3623 22.75 17.75 22.75C16.1377 22.75 14.75 21.5103 14.75 19.885C14.75 19.4557 14.8798 18.9956 15.0463 18.5827C15.2174 18.1582 15.4505 17.7268 15.7077 17.3394C15.9632 16.9547 16.2584 16.5895 16.5636 16.3108C16.7162 16.1714 16.8862 16.0399 17.0691 15.9397Z" fill="#1C212D"/>
</svg>
