<svg width="24" height="24" viewBox="0 0 24 24" fill="none" xmlns="http://www.w3.org/2000/svg">
<path fill-rule="evenodd" clip-rule="evenodd" d="M11.6649 7.82918C11.876 7.72361 12.1245 7.72361 12.3357 7.82918L21.4816 12.4021C21.4816 12.4021 21.4815 12.4021 21.4816 12.4021C21.944 12.6333 22.315 13.0139 22.5342 13.4822C22.7533 13.9505 22.808 14.4791 22.6892 14.9823C22.5704 15.4855 22.2851 15.9339 21.8796 16.2547C21.4742 16.5755 20.9723 16.7501 20.4553 16.75C20.4552 16.75 20.4553 16.75 20.4553 16.75H18.5003C18.0861 16.75 17.7503 16.4142 17.7503 16C17.7503 15.5858 18.0861 15.25 18.5003 15.25H20.4553C20.6344 15.25 20.8084 15.1896 20.9489 15.0784C21.0893 14.9673 21.1881 14.812 21.2293 14.6377C21.2704 14.4633 21.2515 14.2802 21.1756 14.118C21.0997 13.9558 20.9712 13.8239 20.811 13.7439L12.0003 9.33853L3.18969 13.7438C3.02947 13.8239 2.90088 13.9558 2.82496 14.118C2.74904 14.2802 2.73012 14.4633 2.77127 14.6377C2.81242 14.812 2.91124 14.9673 3.0517 15.0784C3.19216 15.1896 3.36603 15.25 3.54514 15.25H5.50028C5.91449 15.25 6.25028 15.5858 6.25028 16C6.25028 16.4142 5.91449 16.75 5.50028 16.75H3.54541C3.54537 16.75 3.54545 16.75 3.54541 16.75C3.0284 16.7501 2.52637 16.5755 2.12093 16.2547C1.71545 15.9339 1.4302 15.4855 1.3114 14.9823C1.1926 14.4791 1.24721 13.9505 1.46639 13.4822C1.68555 13.0139 2.05641 12.6333 2.51887 12.4022C2.5189 12.4022 2.51883 12.4022 2.51887 12.4022L11.6649 7.82918Z" fill="#1C212D"/>
<path fill-rule="evenodd" clip-rule="evenodd" d="M10.0555 2.05546C10.5712 1.53973 11.2707 1.25 12 1.25C12.7293 1.25 13.4288 1.53973 13.9445 2.05546C14.4603 2.57118 14.75 3.27065 14.75 4C14.75 4.4352 14.5708 4.97567 14.3849 5.44534C14.1853 5.94943 13.9239 6.50038 13.669 7.00334C13.4131 7.50855 13.1579 7.97683 12.9672 8.31811C12.8717 8.48904 12.792 8.62878 12.7359 8.72617C12.7079 8.77487 12.6857 8.81303 12.6705 8.83924L12.6528 8.86943L12.6468 8.8797C12.6467 8.87977 12.6462 8.88068 12 8.5L12.6462 8.88068C12.436 9.23757 11.9762 9.35645 11.6193 9.14621C11.2624 8.93596 11.1435 8.47621 11.3538 8.11932L11.3548 8.11758L11.3587 8.11102L11.3745 8.08397C11.3885 8.05991 11.4093 8.02404 11.436 7.97776C11.4893 7.88517 11.5658 7.75104 11.6578 7.58642C11.8421 7.25661 12.0869 6.80708 12.331 6.32541C12.5761 5.84149 12.8147 5.3365 12.9901 4.89325C13.1792 4.41558 13.25 4.1173 13.25 4C13.25 3.66848 13.1183 3.35054 12.8839 3.11612C12.6495 2.8817 12.3315 2.75 12 2.75C11.6685 2.75 11.3505 2.8817 11.1161 3.11612C10.8817 3.35054 10.75 3.66848 10.75 4C10.75 4.41421 10.4142 4.75 10 4.75C9.58579 4.75 9.25 4.41421 9.25 4C9.25 3.27065 9.53973 2.57118 10.0555 2.05546ZM4.75 15C4.75 14.5858 5.08579 14.25 5.5 14.25H18.5C18.9142 14.25 19.25 14.5858 19.25 15V22C19.25 22.4142 18.9142 22.75 18.5 22.75H5.5C5.08579 22.75 4.75 22.4142 4.75 22V15ZM6.25 15.75V21.25H17.75V15.75H6.25Z" fill="#1C212D"/>
</svg>
