<svg width="24" height="24" viewBox="0 0 24 24" fill="none" xmlns="http://www.w3.org/2000/svg">
<path d="M7.125 11.25C7.34751 11.25 7.56501 11.316 7.75002 11.4396C7.93502 11.5632 8.07922 11.7389 8.16437 11.9445C8.24951 12.15 8.27179 12.3762 8.22838 12.5945C8.18498 12.8127 8.07783 13.0132 7.9205 13.1705C7.76316 13.3278 7.56271 13.435 7.34448 13.4784C7.12625 13.5218 6.90005 13.4995 6.69448 13.4144C6.48892 13.3292 6.31321 13.185 6.1896 13C6.06598 12.815 6 12.5975 6 12.375C6 12.0766 6.11853 11.7905 6.32951 11.5795C6.54048 11.3685 6.82663 11.25 7.125 11.25ZM7.125 9.75C6.60583 9.75 6.09831 9.90395 5.66663 10.1924C5.23495 10.4808 4.8985 10.8908 4.69982 11.3705C4.50114 11.8501 4.44915 12.3779 4.55044 12.8871C4.65173 13.3963 4.90173 13.864 5.26885 14.2312C5.63596 14.5983 6.10369 14.8483 6.61289 14.9496C7.12209 15.0508 7.64989 14.9989 8.12954 14.8002C8.6092 14.6015 9.01917 14.2651 9.30761 13.8334C9.59605 13.4017 9.75 12.8942 9.75 12.375C9.75 11.6788 9.47344 11.0111 8.98116 10.5188C8.48887 10.0266 7.82119 9.75 7.125 9.75V9.75Z" fill="#1C212D"/>
<path d="M18.75 10.5H12.75C12.3522 10.5 11.9706 10.658 11.6893 10.9393C11.408 11.2206 11.25 11.6021 11.25 12V15.5C11.25 16.0522 10.8023 16.5 10.25 16.5H4C3.44772 16.5 3 16.0522 3 15.5V8.54732C3 8.1794 3.20203 7.8412 3.52599 7.6668L11.5262 3.36003C11.822 3.20078 12.178 3.20072 12.4739 3.35987L20.7365 7.80437C21.1012 8.00058 21.556 7.8632 21.7511 7.49785V7.49785C21.9454 7.13414 21.8088 6.68183 21.4458 6.48634L12.3525 1.58995C12.244 1.53217 12.1229 1.50195 12 1.50195C11.8771 1.50195 11.756 1.53217 11.6475 1.58995L1.8975 6.83995C1.77774 6.90372 1.67752 6.99878 1.60752 7.11501C1.53752 7.23124 1.50036 7.36428 1.5 7.49995V21.75C1.5 22.1642 1.83579 22.5 2.25 22.5V22.5C2.66421 22.5 3 22.1642 3 21.75V19C3 18.4477 3.44772 18 4 18H20C20.5523 18 21 18.4477 21 19V21.75C21 22.1642 21.3358 22.5 21.75 22.5V22.5C22.1642 22.5 22.5 22.1642 22.5 21.75V14.25C22.5 13.2554 22.1049 12.3016 21.4017 11.5983C20.6984 10.895 19.7446 10.5 18.75 10.5ZM13.75 16.5C13.1977 16.5 12.75 16.0522 12.75 15.5V13C12.75 12.4477 13.1977 12 13.75 12H18.75C19.3467 12 19.919 12.237 20.341 12.659C20.7629 13.0809 21 13.6532 21 14.25V15.5C21 16.0522 20.5523 16.5 20 16.5H13.75Z" fill="#1C212D"/>
</svg>
