<svg width="24" height="24" viewBox="0 0 24 24" fill="none" xmlns="http://www.w3.org/2000/svg">
<path d="M22.5 19.5002H21V10.8283C20.9999 10.6202 20.9566 10.4144 20.8726 10.2239C20.7887 10.0335 20.6661 9.86257 20.5125 9.72208L13.0125 2.90646C12.736 2.65348 12.3748 2.51318 12 2.51318C11.6252 2.51318 11.264 2.65348 10.9875 2.90646L3.4875 9.72208C3.33394 9.86257 3.2113 10.0335 3.12737 10.2239C3.04344 10.4144 3.00007 10.6202 3 10.8283V19.5002H1.5C1.30109 19.5002 1.11032 19.5792 0.96967 19.7199C0.829018 19.8605 0.75 20.0513 0.75 20.2502C0.75 20.4491 0.829018 20.6399 0.96967 20.7805C1.11032 20.9212 1.30109 21.0002 1.5 21.0002H22.5C22.6989 21.0002 22.8897 20.9212 23.0303 20.7805C23.171 20.6399 23.25 20.4491 23.25 20.2502C23.25 20.0513 23.171 19.8605 23.0303 19.7199C22.8897 19.5792 22.6989 19.5002 22.5 19.5002ZM4.5 10.8283L12 4.01271L19.5 10.8283V19.5002H15V15.0002C15 14.6024 14.842 14.2209 14.5607 13.9395C14.2794 13.6582 13.8978 13.5002 13.5 13.5002H10.5C10.1022 13.5002 9.72064 13.6582 9.43934 13.9395C9.15804 14.2209 9 14.6024 9 15.0002V19.5002H4.5V10.8283ZM13.5 19.5002H10.5V15.0002H13.5V19.5002Z" fill="#1C212D"/>
</svg>
