<svg width="24" height="24" viewBox="0 0 24 24" fill="none" xmlns="http://www.w3.org/2000/svg">
<path d="M21.5599 10.74L20.2099 9.16002C19.9599 8.86002 19.7499 8.30002 19.7499 7.90002V6.20002C19.7499 5.14002 18.8799 4.27002 17.8199 4.27002H16.1199C15.7199 4.27002 15.1499 4.06002 14.8499 3.81002L13.2699 2.46002C12.5799 1.87002 11.4499 1.87002 10.7599 2.46002L9.15988 3.81002C8.85988 4.06002 8.29988 4.27002 7.89988 4.27002H6.16988C5.10988 4.27002 4.23988 5.14002 4.23988 6.20002V7.90002C4.23988 8.29002 4.03988 8.85002 3.78988 9.15002L2.43988 10.74C1.85988 11.44 1.85988 12.56 2.43988 13.24L3.78988 14.83C4.03988 15.12 4.23988 15.69 4.23988 16.08V17.79C4.23988 18.85 5.10988 19.72 6.16988 19.72H7.90988C8.29988 19.72 8.86988 19.93 9.16988 20.18L10.7499 21.53C11.4399 22.12 12.5699 22.12 13.2599 21.53L14.8399 20.18C15.1399 19.93 15.6999 19.72 16.0999 19.72H17.7999C18.8599 19.72 19.7299 18.85 19.7299 17.79V16.09C19.7299 15.69 19.9399 15.13 20.1899 14.83L21.5399 13.25C22.1499 12.57 22.1499 11.44 21.5599 10.74ZM11.2499 8.13002C11.2499 7.72002 11.5899 7.38002 11.9999 7.38002C12.4099 7.38002 12.7499 7.72002 12.7499 8.13002V12.96C12.7499 13.37 12.4099 13.71 11.9999 13.71C11.5899 13.71 11.2499 13.37 11.2499 12.96V8.13002ZM11.9999 16.87C11.4499 16.87 10.9999 16.42 10.9999 15.87C10.9999 15.32 11.4399 14.87 11.9999 14.87C12.5499 14.87 12.9999 15.32 12.9999 15.87C12.9999 16.42 12.5599 16.87 11.9999 16.87Z" fill="#1C212D"/>
</svg>
