<svg width="16" height="16" viewBox="0 0 16 16" fill="none" xmlns="http://www.w3.org/2000/svg">
<path fill-rule="evenodd" clip-rule="evenodd" d="M0.833008 7.99992C0.833008 4.05711 4.05687 0.833252 7.99967 0.833252C11.9425 0.833252 15.1663 4.05711 15.1663 7.99992C15.1663 11.9427 11.9425 15.1666 7.99967 15.1666C4.05687 15.1666 0.833008 11.9427 0.833008 7.99992ZM7.99967 1.83325C4.60915 1.83325 1.83301 4.60939 1.83301 7.99992C1.83301 11.3904 4.60915 14.1666 7.99967 14.1666C11.3902 14.1666 14.1663 11.3904 14.1663 7.99992C14.1663 4.60939 11.3902 1.83325 7.99967 1.83325Z" fill="#1C212D"/>
<path fill-rule="evenodd" clip-rule="evenodd" d="M8 6.96667C8.27614 6.96667 8.5 7.19053 8.5 7.46667V10.8C8.5 11.0762 8.27614 11.3 8 11.3C7.72386 11.3 7.5 11.0762 7.5 10.8V7.46667C7.5 7.19053 7.72386 6.96667 8 6.96667Z" fill="#1C212D"/>
<path fill-rule="evenodd" clip-rule="evenodd" d="M7.3291 5.49992C7.3291 5.13173 7.62758 4.83325 7.99577 4.83325H8.00176C8.36995 4.83325 8.66842 5.13173 8.66842 5.49992C8.66842 5.86811 8.36995 6.16658 8.00176 6.16658H7.99577C7.62758 6.16658 7.3291 5.86811 7.3291 5.49992Z" fill="#1C212D"/>
</svg>
