<svg width="24" height="24" viewBox="0 0 24 24" fill="none" xmlns="http://www.w3.org/2000/svg">
<path fill-rule="evenodd" clip-rule="evenodd" d="M1.25049 12C1.25049 6.08579 6.08627 1.25 12.0005 1.25C17.9147 1.25 22.7505 6.08579 22.7505 12C22.7505 17.9142 17.9147 22.75 12.0005 22.75C6.08627 22.75 1.25049 17.9142 1.25049 12ZM11.9981 13.7502C11.5839 13.7502 11.2481 13.4144 11.2481 13.0002L11.2481 8.00016C11.2481 7.58595 11.5839 7.25016 11.9981 7.25016C12.4123 7.25016 12.7481 7.58595 12.7481 8.00016V13.0002C12.7481 13.4144 12.4123 13.7502 11.9981 13.7502ZM12.0035 16.9503C12.5558 16.9503 13.0035 16.5025 13.0035 15.9503C13.0035 15.398 12.5558 14.9503 12.0035 14.9503H11.9946C11.4423 14.9503 10.9946 15.398 10.9946 15.9503C10.9946 16.5025 11.4423 16.9503 11.9946 16.9503H12.0035Z" fill="#DE4444"/>
</svg>
