<svg width="20" height="20" viewBox="0 0 20 20" fill="none" xmlns="http://www.w3.org/2000/svg">
<path fill-rule="evenodd" clip-rule="evenodd" d="M1.04199 10.0001C1.04199 5.07157 5.07181 1.04175 10.0003 1.04175C14.9288 1.04175 18.9587 5.07157 18.9587 10.0001C18.9587 14.9286 14.9288 18.9584 10.0003 18.9584C5.07181 18.9584 1.04199 14.9286 1.04199 10.0001ZM10 8.7085C10.3452 8.7085 10.625 8.98832 10.625 9.3335V13.5002C10.625 13.8453 10.3452 14.1252 10 14.1252C9.65482 14.1252 9.375 13.8453 9.375 13.5002V9.3335C9.375 8.98832 9.65482 8.7085 10 8.7085ZM9.99544 6.04175C9.53521 6.04175 9.16211 6.41484 9.16211 6.87508C9.16211 7.33532 9.53521 7.70841 9.99544 7.70841H10.0029C10.4632 7.70841 10.8363 7.33532 10.8363 6.87508C10.8363 6.41484 10.4632 6.04175 10.0029 6.04175H9.99544Z" fill="#CDD1DB"/>
</svg>
