<svg width="24" height="24" viewBox="0 0 24 24" fill="none" xmlns="http://www.w3.org/2000/svg">
<path d="M12.9999 14.05V14H4.25293C3.9575 13.9999 3.66494 14.0579 3.39197 14.1709C3.11899 14.2839 2.87094 14.4495 2.662 14.6584C2.45306 14.8672 2.28731 15.1152 2.17422 15.3881C2.06113 15.661 2.00293 15.9536 2.00293 16.249V16.827C2.00293 17.719 2.32293 18.583 2.90293 19.262C4.46793 21.096 6.85393 22.002 9.99993 22.002C10.3579 22.002 10.7059 21.989 11.0429 21.966C11.0141 21.8123 10.9997 21.6563 10.9999 21.5V20.465C10.6789 20.489 10.3459 20.501 9.99993 20.501C7.26193 20.501 5.29593 19.755 4.04293 18.288C3.6945 17.8806 3.50301 17.3621 3.50293 16.826V16.249C3.50293 16.0501 3.58195 15.8593 3.7226 15.7187C3.86325 15.578 4.05402 15.499 4.25293 15.499H11.2079C11.3688 15.1316 11.6155 14.8083 11.9273 14.5561C12.2392 14.3039 12.607 14.1304 12.9999 14.05Z" fill="#1C212D"/>
<path d="M10 2.00488C10.6566 2.00488 11.3068 2.13421 11.9134 2.38548C12.52 2.63676 13.0712 3.00506 13.5355 3.46935C13.9998 3.93364 14.3681 4.48484 14.6194 5.09147C14.8707 5.69809 15 6.34827 15 7.00488C15 7.66149 14.8707 8.31167 14.6194 8.9183C14.3681 9.52493 13.9998 10.0761 13.5355 10.5404C13.0712 11.0047 12.52 11.373 11.9134 11.6243C11.3068 11.8756 10.6566 12.0049 10 12.0049C8.67392 12.0049 7.40215 11.4781 6.46447 10.5404C5.52678 9.60273 5 8.33097 5 7.00488C5 5.6788 5.52678 4.40703 6.46447 3.46935C7.40215 2.53167 8.67392 2.00488 10 2.00488V2.00488ZM10 3.50488C9.54037 3.50488 9.08525 3.59541 8.66061 3.7713C8.23597 3.9472 7.85013 4.205 7.52513 4.53001C7.20012 4.85501 6.94231 5.24085 6.76642 5.66549C6.59053 6.09013 6.5 6.54526 6.5 7.00488C6.5 7.46451 6.59053 7.91963 6.76642 8.34427C6.94231 8.76891 7.20012 9.15475 7.52513 9.47976C7.85013 9.80476 8.23597 10.0626 8.66061 10.2385C9.08525 10.4144 9.54037 10.5049 10 10.5049C10.9283 10.5049 11.8185 10.1361 12.4749 9.47976C13.1313 8.82338 13.5 7.93314 13.5 7.00488C13.5 6.07663 13.1313 5.18639 12.4749 4.53001C11.8185 3.87363 10.9283 3.50488 10 3.50488V3.50488Z" fill="#1C212D"/>
<path d="M14 15H13.5C13.1022 15 12.7206 15.158 12.4393 15.4393C12.158 15.7206 12 16.1022 12 16.5V21.5C12 21.8978 12.158 22.2794 12.4393 22.5607C12.7206 22.842 13.1022 23 13.5 23H21.5C21.8978 23 22.2794 22.842 22.5607 22.5607C22.842 22.2794 23 21.8978 23 21.5V16.5C23 16.1022 22.842 15.7206 22.5607 15.4393C22.2794 15.158 21.8978 15 21.5 15H21V13.75C21 13.2859 20.8156 12.8408 20.4874 12.5126C20.1592 12.1844 19.7141 12 19.25 12H15.75C15.2859 12 14.8408 12.1844 14.5126 12.5126C14.1844 12.8408 14 13.2859 14 13.75V15ZM15.5 13.75C15.5 13.6837 15.5263 13.6201 15.5732 13.5732C15.6201 13.5263 15.6837 13.5 15.75 13.5H19.25C19.3163 13.5 19.3799 13.5263 19.4268 13.5732C19.4737 13.6201 19.5 13.6837 19.5 13.75V15H15.5V13.75Z" fill="#1C212D"/>
</svg>
