<svg width="48" height="48" viewBox="0 0 48 48" fill="none" xmlns="http://www.w3.org/2000/svg">
<path d="M32.669 3.9996H15.331C8.55298 3.9996 4.00098 8.7556 4.00098 15.8336V32.1676C4.00098 39.2436 8.55298 43.9996 15.331 43.9996H32.667C39.445 43.9996 44.001 39.2436 44.001 32.1676V15.8336C44.001 8.7556 39.447 3.9996 32.669 3.9996Z" fill="white"/>
<path d="M24.0004 14.4C24.1288 14.4 24.2572 14.4048 24.3844 14.4156C23.5234 15.0249 22.8212 15.8319 22.3368 16.7688C21.8523 17.7057 21.5998 18.7452 21.6004 19.8C21.6004 21.3804 22.156 22.8312 23.0824 23.9676L22.2004 24.8484V26.88C22.2004 27.0709 22.1245 27.2541 21.9895 27.3891C21.8545 27.5241 21.6713 27.6 21.4804 27.6H19.2004V29.28C19.2004 29.471 19.1245 29.6541 18.9895 29.7891C18.8545 29.9241 18.6713 30 18.4804 30H15.1204C14.9294 30 14.7463 29.9241 14.6113 29.7891C14.4762 29.6541 14.4004 29.471 14.4004 29.28V25.8492C14.4006 25.6583 14.4765 25.4753 14.6116 25.3404L19.3948 20.5572C19.1837 19.8412 19.1426 19.0858 19.2746 18.3511C19.4066 17.6164 19.7081 16.9227 20.1552 16.3249C20.6024 15.7272 21.1827 15.2419 21.8502 14.9078C22.5177 14.5736 23.2539 14.3998 24.0004 14.4ZM22.8004 19.8C22.8005 18.8671 23.0422 17.9501 23.5021 17.1384C23.962 16.3268 24.6243 15.6481 25.4245 15.1685C26.2247 14.6889 27.1355 14.4249 28.0682 14.402C29.0008 14.3792 29.9234 14.5983 30.7462 15.0381C31.5689 15.478 32.2636 16.1234 32.7627 16.9116C33.2618 17.6998 33.5482 18.6038 33.5939 19.5356C33.6396 20.4674 33.4432 21.3951 33.0237 22.2284C32.6043 23.0617 31.9761 23.7721 31.2004 24.2904V26.7504L32.14 27.6912C32.2748 27.8262 32.3506 28.0092 32.3506 28.2C32.3506 28.3908 32.2748 28.5738 32.14 28.7088L30.8488 30L32.1304 31.2804C32.202 31.352 32.2577 31.438 32.2938 31.5326C32.3299 31.6273 32.3457 31.7285 32.34 31.8296C32.3343 31.9307 32.3074 32.0296 32.2609 32.1196C32.2145 32.2096 32.1495 32.2888 32.0704 32.352L29.2504 34.608C29.1227 34.7102 28.964 34.7659 28.8004 34.7659C28.6368 34.7659 28.4781 34.7102 28.3504 34.608L25.4704 32.304C25.3862 32.2366 25.3182 32.1511 25.2715 32.0539C25.2248 31.9567 25.2005 31.8503 25.2004 31.7424V24.2904C24.4616 23.7973 23.856 23.1294 23.4374 22.3461C23.0187 21.5628 22.7999 20.6882 22.8004 19.8ZM29.1004 18.6C29.1004 18.3613 29.0056 18.1324 28.8368 17.9636C28.668 17.7948 28.4391 17.7 28.2004 17.7C27.9617 17.7 27.7328 17.7948 27.564 17.9636C27.3952 18.1324 27.3004 18.3613 27.3004 18.6C27.3004 18.8387 27.3952 19.0676 27.564 19.2364C27.7328 19.4052 27.9617 19.5 28.2004 19.5C28.4391 19.5 28.668 19.4052 28.8368 19.2364C29.0056 19.0676 29.1004 18.8387 29.1004 18.6Z" fill="#1C212D"/>
</svg>
