<svg width="46" height="16" viewBox="0 0 46 16" fill="none" xmlns="http://www.w3.org/2000/svg">
<path d="M0.575195 16V1.09002H3.9142V12.808H10.0882V16H0.575195Z" fill="white"/>
<path d="M13.3616 4.07202C12.8296 4.07202 12.3676 3.88302 11.9756 3.50502C11.5836 3.11302 11.3876 2.64402 11.3876 2.09802C11.3876 1.55202 11.5836 1.09002 11.9756 0.712023C12.3676 0.320023 12.8296 0.124023 13.3616 0.124023C13.9216 0.124023 14.3906 0.320023 14.7686 0.712023C15.1606 1.09002 15.3566 1.55202 15.3566 2.09802C15.3566 2.64402 15.1606 3.11302 14.7686 3.50502C14.3906 3.88302 13.9216 4.07202 13.3616 4.07202ZM11.7866 16V5.50002H14.9576V16H11.7866Z" fill="white"/>
<path d="M20.8458 16L16.2468 5.50002H19.7538L22.2948 11.884L24.8568 5.50002H28.3848L23.7858 16H20.8458Z" fill="white"/>
<path d="M31.2444 4.07202C30.7124 4.07202 30.2504 3.88302 29.8584 3.50502C29.4664 3.11302 29.2704 2.64402 29.2704 2.09802C29.2704 1.55202 29.4664 1.09002 29.8584 0.712023C30.2504 0.320023 30.7124 0.124023 31.2444 0.124023C31.8044 0.124023 32.2734 0.320023 32.6514 0.712023C33.0434 1.09002 33.2394 1.55202 33.2394 2.09802C33.2394 2.64402 33.0434 3.11302 32.6514 3.50502C32.2734 3.88302 31.8044 4.07202 31.2444 4.07202ZM29.6694 16V5.50002H32.8404V16H29.6694Z" fill="white"/>
<path d="M35.4526 16V5.50002H38.6236V6.57102C39.2256 5.70302 40.1986 5.26902 41.5426 5.26902C42.8166 5.26902 43.8106 5.69602 44.5246 6.55002C45.2526 7.40402 45.6166 8.53102 45.6166 9.93102V16H42.4456V10.477C42.4456 8.92302 41.8786 8.14602 40.7446 8.14602C40.1146 8.14602 39.6036 8.37702 39.2116 8.83902C38.8196 9.30102 38.6236 9.98702 38.6236 10.897V16H35.4526Z" fill="white"/>
</svg>
