<svg width="24" height="24" viewBox="0 0 24 24" fill="none" xmlns="http://www.w3.org/2000/svg">
<path d="M23 12C23 18.0751 18.0751 23 12 23C5.92487 23 1 18.0751 1 12C1 5.92487 5.92487 1 12 1C18.0751 1 23 5.92487 23 12ZM2.76 12C2.76 17.1031 6.89689 21.24 12 21.24C17.1031 21.24 21.24 17.1031 21.24 12C21.24 6.89689 17.1031 2.76 12 2.76C6.89689 2.76 2.76 6.89689 2.76 12Z" fill="#CDD1DB"/>
<path d="M12 1.88C12 1.39399 12.3946 0.996339 12.8791 1.03517C14.8642 1.19431 16.775 1.89014 18.4033 3.05583C20.2707 4.39277 21.6729 6.28071 22.4131 8.45487C23.1533 10.629 23.1944 12.9803 22.5306 15.179C21.9519 17.0961 20.8626 18.8133 19.387 20.1507C19.0268 20.477 18.4715 20.4028 18.175 20.0177C17.8784 19.6327 17.9535 19.083 18.3086 18.7512C19.4956 17.642 20.3732 16.2355 20.8457 14.6704C21.4033 12.8235 21.3687 10.8484 20.747 9.02209C20.1252 7.1958 18.9474 5.60993 17.3787 4.4869C16.0494 3.5352 14.4959 2.95634 12.8787 2.80187C12.3949 2.75565 12 2.36601 12 1.88Z" fill="#8991A1"/>
</svg>
