<svg width="24" height="24" viewBox="0 0 24 24" fill="none" xmlns="http://www.w3.org/2000/svg">
<path d="M21.0199 22.0076H7.8827C7.34197 22.0076 6.90355 21.5688 6.90355 21.0275V14.8202C6.90355 14.572 6.99755 14.3331 7.16694 14.1516L14.0357 6.7848L11.9976 4.45735L3.96611 13.4787V21.0275C3.96611 21.5688 3.5277 22.0076 2.98696 22.0076C2.44623 22.0076 2.00781 21.5688 2.00781 21.0275V13.1056C2.00781 12.8652 2.09618 12.6329 2.25603 12.4536L11.2725 2.32544C11.4593 2.1157 11.717 1.99025 12.0074 1.99736C12.2881 1.99858 12.5547 2.12011 12.7398 2.33132L21.7563 12.627C21.9129 12.8057 21.9991 13.0355 21.9991 13.2732V21.0275C21.9991 21.5688 21.5607 22.0076 21.0199 22.0076ZM8.86185 20.0475H20.0408V13.6417L15.333 8.26594L8.86185 15.2064V20.0475Z" fill="#AFB5C0"/>
</svg>
