<svg width="24" height="24" viewBox="0 0 24 24" fill="none" xmlns="http://www.w3.org/2000/svg">
<path d="M11.9599 6.38461C12.8175 6.38461 13.8926 5.80483 14.5327 5.03179C15.1125 4.33121 15.5353 3.35283 15.5353 2.37444C15.5353 2.24158 15.5232 2.10871 15.499 2C14.5448 2.03624 13.3973 2.64018 12.7088 3.44946C12.1653 4.06548 11.6701 5.03179 11.6701 6.02225C11.6701 6.1672 11.6942 6.31214 11.7063 6.36046C11.7667 6.37254 11.8633 6.38461 11.9599 6.38461ZM8.94024 21C10.1119 21 10.6313 20.2149 12.0928 20.2149C13.5785 20.2149 13.9046 20.9758 15.2092 20.9758C16.4895 20.9758 17.3471 19.7921 18.1564 18.6325C19.0623 17.3039 19.4367 15.9994 19.4609 15.939C19.3764 15.9148 16.9243 14.9123 16.9243 12.0979C16.9243 9.65798 18.857 8.5588 18.9657 8.47425C17.6853 6.63827 15.7406 6.58996 15.2092 6.58996C13.7718 6.58996 12.6001 7.45963 11.8633 7.45963C11.0661 7.45963 10.0153 6.63827 8.77114 6.63827C6.40369 6.63827 4 8.59504 4 12.2912C4 14.5861 4.89383 17.014 5.99301 18.5842C6.93516 19.9129 7.75652 21 8.94024 21Z" fill="#1C212D"/>
</svg>
