<svg width="87" height="32" viewBox="0 0 87 32" fill="none" xmlns="http://www.w3.org/2000/svg">
<path d="M28.0272 29.3436H10.5109C9.78994 29.3436 9.20539 28.7585 9.20539 28.0368V19.7604C9.20539 19.4294 9.33072 19.1109 9.55658 18.8688L18.7149 9.04648L15.9974 5.94322L5.2888 17.9717V28.0368C5.2888 28.7585 4.70424 29.3436 3.98327 29.3436C3.26229 29.3436 2.67773 28.7585 2.67773 28.0368V17.4742C2.67773 17.1537 2.79556 16.844 3.00869 16.6048L15.0307 3.10067C15.2797 2.82102 15.6234 2.65375 16.0105 2.66322C16.3848 2.66486 16.7403 2.8269 16.987 3.10851L29.009 16.8361C29.2179 17.0743 29.3328 17.3807 29.3328 17.6976V28.0368C29.3328 28.7585 28.7482 29.3436 28.0272 29.3436ZM11.8165 26.73H26.7217V18.189L20.4447 11.0213L11.8165 20.2752V26.73Z" fill="#1C212D"/>
<path d="M41.7402 23.9999V9.79988H44.0802V21.7599H50.5802V23.9999H41.7402Z" fill="#1C212D"/>
<path d="M53.5177 11.8199C53.1177 11.8199 52.7711 11.6799 52.4777 11.3999C52.1844 11.1065 52.0377 10.7532 52.0377 10.3399C52.0377 9.93988 52.1844 9.59988 52.4777 9.31988C52.7711 9.02655 53.1177 8.87988 53.5177 8.87988C53.9311 8.87988 54.2777 9.02655 54.5577 9.31988C54.8377 9.59988 54.9777 9.93988 54.9777 10.3399C54.9777 10.7532 54.8377 11.1065 54.5577 11.3999C54.2777 11.6799 53.9311 11.8199 53.5177 11.8199ZM52.4177 23.9999V13.9999H54.6177V23.9999H52.4177Z" fill="#1C212D"/>
<path d="M60.694 23.9999L56.174 13.9999H58.614L61.654 21.0199L64.714 13.9999H67.174L62.634 23.9999H60.694Z" fill="#1C212D"/>
<path d="M69.8068 11.8199C69.4068 11.8199 69.0601 11.6799 68.7668 11.3999C68.4735 11.1065 68.3268 10.7532 68.3268 10.3399C68.3268 9.93988 68.4735 9.59988 68.7668 9.31988C69.0601 9.02655 69.4068 8.87988 69.8068 8.87988C70.2201 8.87988 70.5668 9.02655 70.8468 9.31988C71.1268 9.59988 71.2668 9.93988 71.2668 10.3399C71.2668 10.7532 71.1268 11.1065 70.8468 11.3999C70.5668 11.6799 70.2201 11.8199 69.8068 11.8199ZM68.7068 23.9999V13.9999H70.9068V23.9999H68.7068Z" fill="#1C212D"/>
<path d="M73.863 23.9999V13.9999H76.063V15.3599C76.6897 14.3199 77.703 13.7999 79.103 13.7999C80.263 13.7999 81.1897 14.1799 81.883 14.9399C82.5764 15.6999 82.923 16.7132 82.923 17.9799V23.9999H80.723V18.3399C80.723 17.5399 80.5364 16.9199 80.163 16.4799C79.7897 16.0265 79.283 15.7999 78.643 15.7999C77.883 15.7999 77.263 16.0865 76.783 16.6599C76.303 17.2332 76.063 18.0399 76.063 19.0799V23.9999H73.863Z" fill="#1C212D"/>
</svg>
