
<svg width="36" height="36" viewBox="0 0 36 36" fill="none" xmlns="http://www.w3.org/2000/svg">
<g clip-path="url(#clip0_36_158218)">
<path d="M27.546 24.9918L18 34.5378L8.45401 24.9918C6.56601 23.1038 5.28028 20.6983 4.75939 18.0796C4.23851 15.4608 4.50586 12.7464 5.52765 10.2797C6.54944 7.81286 8.27977 5.70446 10.4998 4.22107C12.7199 2.73768 15.33 1.94592 18 1.94592C20.67 1.94592 23.2801 2.73768 25.5002 4.22107C27.7202 5.70446 29.4506 7.81286 30.4724 10.2797C31.4942 12.7464 31.7615 15.4608 31.2406 18.0796C30.7197 20.6983 29.434 23.1038 27.546 24.9918ZM18 18.4458C18.7957 18.4458 19.5587 18.1297 20.1213 17.5671C20.6839 17.0045 21 16.2415 21 15.4458C21 14.6502 20.6839 13.8871 20.1213 13.3245C19.5587 12.7619 18.7957 12.4458 18 12.4458C17.2044 12.4458 16.4413 12.7619 15.8787 13.3245C15.3161 13.8871 15 14.6502 15 15.4458C15 16.2415 15.3161 17.0045 15.8787 17.5671C16.4413 18.1297 17.2044 18.4458 18 18.4458Z" fill="#1C212D"/>
</g>
<defs>
<clipPath id="clip0_36_158218">
<rect width="36" height="36" fill="white"/>
</clipPath>
</defs>
</svg>
