<svg width="38" height="27" viewBox="0 0 38 27" fill="none" xmlns="http://www.w3.org/2000/svg">
<g clip-path="url(#clip0_3929_26246)">
<path d="M22.9165 6.42383H15.0625V20.5754H22.9165V6.42383Z" fill="#FF5F00"/>
<path d="M15.5614 13.5C15.5601 12.1371 15.8681 10.7918 16.4621 9.56587C17.0561 8.33998 17.9204 7.26565 18.9897 6.4242C17.6655 5.38061 16.0753 4.73162 14.4007 4.5514C12.726 4.37118 11.0347 4.66701 9.5198 5.40507C8.00495 6.14313 6.72775 7.29365 5.8342 8.72512C4.94065 10.1566 4.4668 11.8113 4.4668 13.5C4.4668 15.1887 4.94065 16.8434 5.8342 18.2748C6.72775 19.7063 8.00495 20.8568 9.5198 21.5949C11.0347 22.333 12.726 22.6288 14.4007 22.4486C16.0753 22.2684 17.6655 21.6194 18.9897 20.5758C17.9204 19.7343 17.0561 18.66 16.4621 17.4341C15.8682 16.2082 15.5601 14.8629 15.5614 13.5V13.5Z" fill="#EB001B"/>
<path d="M33.5107 13.5C33.5108 15.1887 33.037 16.8433 32.1435 18.2748C31.25 19.7063 29.9728 20.8568 28.458 21.5949C26.9432 22.3329 25.2518 22.6288 23.5772 22.4486C21.9026 22.2684 20.3124 21.6194 18.9883 20.5758C20.0566 19.7335 20.9203 18.659 21.5141 17.4333C22.108 16.2076 22.4166 14.8627 22.4166 13.5C22.4166 12.1373 22.108 10.7924 21.5141 9.5667C20.9203 8.341 20.0566 7.26649 18.9883 6.4242C20.3124 5.38061 21.9026 4.73161 23.5772 4.5514C25.2518 4.37118 26.9432 4.66702 28.458 5.40509C29.9728 6.14316 31.25 7.29368 32.1435 8.72515C33.037 10.1566 33.5108 11.8113 33.5107 13.5V13.5Z" fill="#F79E1B"/>
<path d="M32.6548 19.0769V18.7871H32.7713V18.7281H32.4746V18.7871H32.5912V19.0769H32.6548ZM33.2309 19.0769V18.7275H33.14L33.0353 18.9678L32.9307 18.7275H32.8397V19.0769H32.9039V18.8134L33.002 19.0405H33.0686L33.1667 18.8128V19.0769H33.2309Z" fill="#F79E1B"/>
</g>
<defs>
<clipPath id="clip0_3929_26246">
<rect width="38" height="27" fill="white"/>
</clipPath>
</defs>
</svg>
