<svg width="18" height="18" viewBox="0 0 18 18" fill="none" xmlns="http://www.w3.org/2000/svg">
<path d="M13.167 0.666748H4.83366C2.53366 0.666748 0.666992 2.52508 0.666992 4.81675V9.80008V10.6334C0.666992 12.9251 2.53366 14.7834 4.83366 14.7834H6.08366C6.30866 14.7834 6.60866 14.9334 6.75033 15.1167L8.00033 16.7751C8.55033 17.5084 9.45033 17.5084 10.0003 16.7751L11.2503 15.1167C11.4087 14.9084 11.6587 14.7834 11.917 14.7834H13.167C15.467 14.7834 17.3337 12.9251 17.3337 10.6334V4.81675C17.3337 2.52508 15.467 0.666748 13.167 0.666748ZM5.66699 9.00008C5.20033 9.00008 4.83366 8.62508 4.83366 8.16675C4.83366 7.70842 5.20866 7.33342 5.66699 7.33342C6.12533 7.33342 6.50033 7.70842 6.50033 8.16675C6.50033 8.62508 6.13366 9.00008 5.66699 9.00008ZM9.00033 9.00008C8.53366 9.00008 8.16699 8.62508 8.16699 8.16675C8.16699 7.70842 8.54199 7.33342 9.00033 7.33342C9.45866 7.33342 9.83366 7.70842 9.83366 8.16675C9.83366 8.62508 9.46699 9.00008 9.00033 9.00008ZM12.3337 9.00008C11.867 9.00008 11.5003 8.62508 11.5003 8.16675C11.5003 7.70842 11.8753 7.33342 12.3337 7.33342C12.792 7.33342 13.167 7.70842 13.167 8.16675C13.167 8.62508 12.8003 9.00008 12.3337 9.00008Z" fill="#AFB5C0"/>
</svg>
