<svg width="24" height="24" viewBox="0 0 24 24" fill="none" xmlns="http://www.w3.org/2000/svg">
<path d="M3.75 3.5C3.6837 3.5 3.62011 3.52634 3.57322 3.57322C3.52634 3.62011 3.5 3.6837 3.5 3.75V16.25C3.5 16.388 3.612 16.5 3.75 16.5H9V18H3.75C3.28587 18 2.84075 17.8156 2.51256 17.4874C2.18437 17.1592 2 16.7141 2 16.25V3.75C2 2.784 2.784 2 3.75 2H9.25C10.216 2 11 2.784 11 3.75V6.75C11 6.888 11.112 7 11.25 7H12.25C13.216 7 14 7.784 14 8.75V8.822L12.5 10.222V8.75C12.5 8.6837 12.4737 8.62011 12.4268 8.57322C12.3799 8.52634 12.3163 8.5 12.25 8.5H11.25C10.7859 8.5 10.3408 8.31563 10.0126 7.98744C9.68437 7.65925 9.5 7.21413 9.5 6.75V3.75C9.5 3.6837 9.47366 3.62011 9.42678 3.57322C9.37989 3.52634 9.3163 3.5 9.25 3.5H3.75ZM6 5.75C6 5.94891 5.92098 6.13968 5.78033 6.28033C5.63968 6.42098 5.44891 6.5 5.25 6.5C5.05109 6.5 4.86032 6.42098 4.71967 6.28033C4.57902 6.13968 4.5 5.94891 4.5 5.75C4.5 5.55109 4.57902 5.36032 4.71967 5.21967C4.86032 5.07902 5.05109 5 5.25 5C5.44891 5 5.63968 5.07902 5.78033 5.21967C5.92098 5.36032 6 5.55109 6 5.75ZM5.25 9.5C5.44891 9.5 5.63968 9.42098 5.78033 9.28033C5.92098 9.13968 6 8.94891 6 8.75C6 8.55109 5.92098 8.36032 5.78033 8.21967C5.63968 8.07902 5.44891 8 5.25 8C5.05109 8 4.86032 8.07902 4.71967 8.21967C4.57902 8.36032 4.5 8.55109 4.5 8.75C4.5 8.94891 4.57902 9.13968 4.71967 9.28033C4.86032 9.42098 5.05109 9.5 5.25 9.5ZM6 11.75C6 11.9489 5.92098 12.1397 5.78033 12.2803C5.63968 12.421 5.44891 12.5 5.25 12.5C5.05109 12.5 4.86032 12.421 4.71967 12.2803C4.57902 12.1397 4.5 11.9489 4.5 11.75C4.5 11.5511 4.57902 11.3603 4.71967 11.2197C4.86032 11.079 5.05109 11 5.25 11C5.44891 11 5.63968 11.079 5.78033 11.2197C5.92098 11.3603 6 11.5511 6 11.75ZM7.75 6.5C7.94891 6.5 8.13968 6.42098 8.28033 6.28033C8.42098 6.13968 8.5 5.94891 8.5 5.75C8.5 5.55109 8.42098 5.36032 8.28033 5.21967C8.13968 5.07902 7.94891 5 7.75 5C7.55109 5 7.36032 5.07902 7.21967 5.21967C7.07902 5.36032 7 5.55109 7 5.75C7 5.94891 7.07902 6.13968 7.21967 6.28033C7.36032 6.42098 7.55109 6.5 7.75 6.5V6.5ZM8.5 8.75C8.5 8.94891 8.42098 9.13968 8.28033 9.28033C8.13968 9.42098 7.94891 9.5 7.75 9.5C7.55109 9.5 7.36032 9.42098 7.21967 9.28033C7.07902 9.13968 7 8.94891 7 8.75C7 8.55109 7.07902 8.36032 7.21967 8.21967C7.36032 8.07902 7.55109 8 7.75 8C7.94891 8 8.13968 8.07902 8.28033 8.21967C8.42098 8.36032 8.5 8.55109 8.5 8.75V8.75ZM7.75 12.5C7.84849 12.5 7.94602 12.4806 8.03701 12.4429C8.12801 12.4052 8.21069 12.35 8.28033 12.2803C8.34997 12.2107 8.40522 12.128 8.44291 12.037C8.4806 11.946 8.5 11.8485 8.5 11.75C8.5 11.6515 8.4806 11.554 8.44291 11.463C8.40522 11.372 8.34997 11.2893 8.28033 11.2197C8.21069 11.15 8.12801 11.0948 8.03701 11.0571C7.94602 11.0194 7.84849 11 7.75 11C7.55109 11 7.36032 11.079 7.21967 11.2197C7.07902 11.3603 7 11.5511 7 11.75C7 11.9489 7.07902 12.1397 7.21967 12.2803C7.36032 12.421 7.55109 12.5 7.75 12.5V12.5ZM17.194 9.439C16.87 9.13659 16.4432 8.9684 16 8.9684C15.5568 8.9684 15.13 9.13659 14.806 9.439L10.556 13.405C10.3805 13.5688 10.2405 13.767 10.1449 13.9872C10.0492 14.2074 9.99992 14.4449 10 14.685V20.5C10 20.8978 10.158 21.2794 10.4393 21.5607C10.7206 21.842 11.1022 22 11.5 22H13.5C13.8978 22 14.2794 21.842 14.5607 21.5607C14.842 21.2794 15 20.8978 15 20.5V18H17V20.5C17 20.8978 17.158 21.2794 17.4393 21.5607C17.7206 21.842 18.1022 22 18.5 22H20.5C20.8978 22 21.2794 21.842 21.5607 21.5607C21.842 21.2794 22 20.8978 22 20.5V14.685C22.0001 14.4449 21.9508 14.2074 21.8551 13.9872C21.7595 13.767 21.6195 13.5688 21.444 13.405L17.194 9.439ZM15.829 10.535C15.8753 10.4916 15.9365 10.4674 16 10.4674C16.0635 10.4674 16.1247 10.4916 16.171 10.535L20.421 14.502C20.446 14.5255 20.4659 14.5538 20.4795 14.5853C20.4931 14.6168 20.5001 14.6507 20.5 14.685V20.5H18.5V18C18.5 17.6022 18.342 17.2206 18.0607 16.9393C17.7794 16.658 17.3978 16.5 17 16.5H15C14.6022 16.5 14.2206 16.658 13.9393 16.9393C13.658 17.2206 13.5 17.6022 13.5 18V20.5H11.5V14.685C11.5 14.6506 11.5072 14.6167 11.5209 14.5852C11.5347 14.5537 11.5548 14.5254 11.58 14.502L15.83 10.535H15.829Z" fill="#1C212D"/>
</svg>
