<svg width="24" height="24" viewBox="0 0 24 24" fill="none" xmlns="http://www.w3.org/2000/svg">
<path d="M10.5714 5.57143V4.14286C10.5714 3.57454 10.3457 3.02949 9.9438 2.62763C9.54194 2.22576 8.99689 2 8.42857 2C7.86025 2 7.31521 2.22576 6.91334 2.62763M6 6C6 6.56832 6.09814 7.09814 6.5 7.5C6.90186 7.90186 7.43168 8 8 8M17.7143 5.57143V4.14286C17.7143 3.57454 17.4885 3.02949 17.0867 2.62763C16.6848 2.22576 16.1398 2 15.5714 2C15.0031 2 14.4581 2.22576 14.0562 2.62763C13.6543 3.02949 13.4286 3.57454 13.4286 4.14286V5.57143C13.4286 6.13975 13.6543 6.68479 14.0562 7.08666C14.4581 7.48852 15.0031 7.71429 15.5714 7.71429C16.1398 7.71429 16.6848 7.48852 17.0867 7.08666C17.4885 6.68479 17.7143 6.13975 17.7143 5.57143ZM22 12V11.2857C22 10.7174 21.7742 10.1723 21.3724 9.77049C20.9705 9.36862 20.4255 9.14286 19.8571 9.14286C19.2888 9.14286 18.7438 9.36862 18.3419 9.77049C17.94 10.1723 17.7143 10.7174 17.7143 11.2857V12C17.7143 12.5683 17.94 13.1134 18.3419 13.5152C18.7438 13.9171 19.2888 14.1429 19.8571 14.1429C20.4255 14.1429 20.9705 13.9171 21.3724 13.5152C21.7742 13.1134 22 12.5683 22 12ZM6.28571 12V11.2857C6.28571 11.0043 6.23029 10.7257 6.1226 10.4657C6.01491 10.2057 5.85707 9.96947 5.65809 9.77049C5.4591 9.5715 5.22288 9.41366 4.96289 9.30597C4.70291 9.19828 4.42426 9.14286 4.14286 9.14286C3.86145 9.14286 3.5828 9.19828 3.32282 9.30597C3.06284 9.41366 2.82661 9.5715 2.62763 9.77049C2.42865 9.96947 2.2708 10.2057 2.16312 10.4657C2.05543 10.7257 2 11.0043 2 11.2857V12C2 12.2814 2.05543 12.5601 2.16312 12.82C2.2708 13.08 2.42865 13.3162 2.62763 13.5152C2.82661 13.7142 3.06284 13.8721 3.32282 13.9797C3.5828 14.0874 3.86145 14.1429 4.14286 14.1429C4.42426 14.1429 4.70291 14.0874 4.96289 13.9797C5.22288 13.8721 5.4591 13.7142 5.65809 13.5152C5.85707 13.3162 6.01491 13.08 6.1226 12.82C6.23029 12.5601 6.28571 12.2814 6.28571 12ZM5.36429 17.9143L9.53286 12.8529C9.83266 12.4887 10.7498 11.4871 11.1764 11.2857L19 19C19.5 20.5 18.3419 22.2279 16.7071 22C16.43 22 16.1571 21.9357 15.9086 21.8114L15.3943 21.5543C14.3401 21.0273 13.1778 20.753 11.9993 20.753C10.8208 20.753 9.65843 21.0273 8.60429 21.5543L8.09 21.8114C7.84252 21.9353 7.56961 21.9999 7.29286 22C5.18143 22 4.02286 19.5429 5.36429 17.9143Z" stroke="#1C212D" stroke-width="1.5" stroke-linecap="round"/>
<path d="M3 3L21 21" stroke="#1C212D" stroke-width="1.5" stroke-linecap="round" stroke-linejoin="round"/>
</svg>
