<svg width="24" height="24" viewBox="0 0 24 24" fill="none" xmlns="http://www.w3.org/2000/svg">
<path fill-rule="evenodd" clip-rule="evenodd" d="M7.05816 3.75051C8.07121 2.15662 9.85831 1.25 12.0634 1.25C13.9474 1.25 15.5517 1.79051 16.6005 3.01126C17.6464 4.22865 18.0093 5.97124 17.7441 8.09303C17.5144 9.93011 16.7965 11.3944 15.9137 12.4746C15.6515 12.7953 15.1791 12.8428 14.8583 12.5807C14.5376 12.3186 14.4901 11.8461 14.7522 11.5254C15.4648 10.6535 16.0626 9.45109 16.2557 7.90697C16.4904 6.02876 16.1351 4.77135 15.4627 3.98874C14.7932 3.20949 13.6793 2.75 12.0634 2.75C10.2845 2.75 9.01827 3.46294 8.3241 4.55511C8.10192 4.90469 7.63841 5.00797 7.28883 4.78578C6.93925 4.5636 6.83598 4.10009 7.05816 3.75051ZM7.0572 6.25219C7.47021 6.28381 7.77938 6.64425 7.74776 7.05725C7.73864 7.17635 7.7293 7.26881 7.72206 7.34053C7.72146 7.34642 7.72088 7.35217 7.72031 7.35779C7.71256 7.4347 7.70906 7.47398 7.70765 7.51028C7.70543 7.56787 7.70702 7.64678 7.74232 7.89393C7.96527 9.45457 8.78009 10.816 9.72067 11.7921C10.1893 12.2784 10.6755 12.6545 11.1104 12.9044C11.563 13.1645 11.8931 13.25 12.0634 13.25C12.2505 13.25 12.3586 13.2354 12.4751 13.197C12.6059 13.1539 12.7865 13.0674 13.0938 12.8695C13.4421 12.6452 13.9062 12.7457 14.1305 13.0939C14.3548 13.4421 14.2543 13.9063 13.9061 14.1305C13.5538 14.3574 13.2502 14.5209 12.9446 14.6216C12.9281 14.6271 12.9117 14.6323 12.8954 14.6373C12.8735 14.6508 12.8508 14.6634 12.8272 14.6748C12.4376 14.8637 11.8973 15.2755 11.4586 15.8194C11.0298 16.3511 10.765 16.9247 10.7505 17.4543C10.7858 17.4815 10.8651 17.5279 11.03 17.5859C11.4145 17.7211 11.9571 17.8026 12.6071 17.8965L12.6535 17.9032C13.2433 17.9883 13.9288 18.0873 14.4676 18.2769C14.9778 18.4565 15.7499 18.8639 15.7499 19.778C15.7499 20.2106 15.5546 20.5621 15.3209 20.8217C15.0922 21.0758 14.797 21.2774 14.4996 21.4396C13.904 21.7645 13.1472 22.0119 12.4404 22.1975C11.7236 22.3858 11.0123 22.5221 10.4838 22.6111C10.2185 22.6557 9.99713 22.6889 9.84124 22.7109C9.76326 22.7219 9.70155 22.7302 9.65883 22.7358L9.60928 22.7422L9.59579 22.7439L9.59197 22.7443L9.59081 22.7445C9.59067 22.7445 9.59016 22.7445 9.49986 22L9.59081 22.7445C9.17961 22.7943 8.80518 22.5015 8.75532 22.0903C8.70546 21.6791 8.9983 21.3054 9.40943 21.2555L9.41191 21.2552L9.422 21.2539L9.46443 21.2485C9.50228 21.2435 9.55873 21.2359 9.63114 21.2257C9.77603 21.2052 9.9843 21.1741 10.2347 21.1319C10.7374 21.0472 11.4011 20.9196 12.0593 20.7467C12.7275 20.5712 13.3457 20.3604 13.7814 20.1228C13.9996 20.0038 14.1341 19.8982 14.2061 19.8181C14.211 19.8127 14.2154 19.8077 14.2193 19.803C14.1752 19.7754 14.0985 19.7372 13.9696 19.6918C13.5852 19.5565 13.0426 19.475 12.3926 19.3811L12.3458 19.3743C11.7561 19.2892 11.0709 19.1904 10.5322 19.0008C10.0221 18.8214 9.24986 18.4142 9.24986 17.5C9.24986 16.4867 9.7323 15.5705 10.2911 14.8777C10.4277 14.7083 10.5732 14.5469 10.7238 14.3954C10.6021 14.337 10.4815 14.273 10.363 14.2049C9.79195 13.8768 9.19581 13.4091 8.64056 12.8329C7.53339 11.684 6.53445 10.0454 6.2574 8.10607C6.21784 7.82912 6.20132 7.64514 6.20877 7.45231C6.21221 7.3634 6.2205 7.28059 6.22787 7.20743C6.22842 7.20194 6.22898 7.19643 6.22954 7.19088C6.23674 7.11959 6.24445 7.04317 6.25214 6.94275C6.28376 6.52974 6.6442 6.22057 7.0572 6.25219ZM14.2738 19.8502C14.2721 19.8505 14.2659 19.8449 14.2602 19.8325C14.2727 19.8437 14.2756 19.8499 14.2738 19.8502ZM10.7258 17.4276C10.7275 17.4273 10.7338 17.4329 10.7395 17.4453C10.7269 17.4341 10.7241 17.4279 10.7258 17.4276Z" fill="#1C212D"/>
<path d="M3 3L21 21" stroke="#1C212D" stroke-width="1.5" stroke-linecap="round" stroke-linejoin="round"/>
</svg>
