<svg width="25" height="24" viewBox="0 0 25 24" fill="none" xmlns="http://www.w3.org/2000/svg">
<path d="M20.6902 9.37668C20.1362 8.07561 19.2713 6.93042 18.1714 6.04165C17.0715 5.15287 15.7702 4.54769 14.3818 4.27921L15.2385 2.90854C15.458 2.55729 15.3513 2.09457 15 1.87504C14.6487 1.65551 14.186 1.76228 13.9665 2.11354L12.7091 4.12541C11.0234 4.13323 9.37685 4.63475 7.973 5.56801C6.56915 6.50126 5.46948 7.82535 4.80985 9.37668C3.92628 9.39347 3.08457 9.75626 2.46565 10.3871C1.84673 11.0179 1.5 11.8663 1.5 12.75C1.5 13.6338 1.84673 14.4822 2.46565 15.113C3.08457 15.7438 3.92628 16.1066 4.80985 16.1234C5.47229 17.6811 6.57828 19.0096 7.99012 19.9434C9.40196 20.8772 11.0573 21.375 12.75 21.375C14.4427 21.375 16.098 20.8772 17.5099 19.9434C18.9217 19.0096 20.0277 17.6811 20.6902 16.1234C21.5737 16.1066 22.4154 15.7438 23.0344 15.113C23.6533 14.4822 24 13.6338 24 12.75C24 11.8663 23.6533 11.0179 23.0344 10.3871C22.4154 9.75626 21.5737 9.39347 20.6902 9.37668ZM21.9629 14.063C21.6199 14.4139 21.1523 14.6153 20.6617 14.6237L19.6902 14.6421L19.3099 15.5362C18.7627 16.8233 17.849 17.9209 16.6826 18.6925C15.5162 19.464 14.1485 19.8754 12.75 19.8754C11.3515 19.8754 9.98389 19.464 8.81747 18.6925C7.65104 17.9209 6.73735 16.8233 6.19017 15.5362L5.80983 14.6421L4.83835 14.6237C4.3475 14.6145 3.87986 14.4131 3.53598 14.0627C3.1921 13.7123 2.99944 13.241 2.99944 12.75C2.99944 12.2591 3.1921 11.7878 3.53598 11.4374C3.87986 11.087 4.3475 10.8856 4.83835 10.8764L5.80983 10.8579L6.19017 9.96384C6.73737 8.67682 7.65107 7.57921 8.81749 6.80766C9.98391 6.03612 11.3515 5.62473 12.75 5.62473C14.1485 5.62473 15.5161 6.03612 16.6826 6.80766C17.849 7.57921 18.7627 8.67682 19.3099 9.96384L19.6902 10.8579L20.6617 10.8764C21.0278 10.8833 21.3838 10.9974 21.6858 11.2044C21.9878 11.4115 22.2225 11.7025 22.361 12.0415C22.4994 12.3805 22.5355 12.7526 22.4647 13.1119C22.394 13.4711 22.2195 13.8018 21.9629 14.063Z" fill="#1C212D"/>
<path d="M8.625 11.8125C8.625 11.2947 9.04473 10.875 9.5625 10.875C10.0803 10.875 10.5 11.2947 10.5 11.8125C10.5 12.3303 10.0803 12.75 9.5625 12.75C9.04473 12.75 8.625 12.3303 8.625 11.8125ZM15 11.8125C15 11.2947 15.4197 10.875 15.9375 10.875C16.4553 10.875 16.875 11.2947 16.875 11.8125C16.875 12.3303 16.4553 12.75 15.9375 12.75C15.4197 12.75 15 12.3303 15 11.8125ZM12.75 18C13.2425 18 13.7301 17.903 14.1851 17.7145C14.64 17.5261 15.0534 17.2499 15.4017 16.9017C15.7499 16.5534 16.0261 16.14 16.2145 15.6851C16.5258 14.9337 15.8407 14.25 15.0274 14.25H10.4726C9.65931 14.25 8.97421 14.9337 9.28545 15.6851C9.47391 16.14 9.75013 16.5534 10.0983 16.9017C10.8016 17.6049 11.7554 18 12.75 18Z" fill="#1C212D"/>
<path d="M3.75 3L21.75 21" stroke="#1C212D" stroke-width="1.5" stroke-linecap="round" stroke-linejoin="round"/>
</svg>
