<svg width="24" height="24" viewBox="0 0 24 24" fill="none" xmlns="http://www.w3.org/2000/svg">
<path fill-rule="evenodd" clip-rule="evenodd" d="M11 1.25C11.4142 1.25 11.75 1.58579 11.75 2V6C11.75 6.59674 11.9871 7.16903 12.409 7.59099C12.831 8.01295 13.4033 8.25 14 8.25H15C17.2 8.25 18.75 9.4 18.75 11C18.75 11.4142 18.4142 11.75 18 11.75C17.5858 11.75 17.25 11.4142 17.25 11C17.25 10.6 16.8 9.75 15 9.75H14C13.0054 9.75 12.0516 9.35491 11.3483 8.65165C10.6451 7.94839 10.25 6.99456 10.25 6V2C10.25 1.58579 10.5858 1.25 11 1.25ZM22 1.25C22.4142 1.25 22.75 1.58579 22.75 2C22.75 3.12684 22.4663 3.99266 21.9607 4.62477C21.6384 5.02753 21.2516 5.3035 20.8542 5.49023C21.9038 6.4787 22.75 8.17249 22.75 11C22.75 11.4142 22.4142 11.75 22 11.75C21.5858 11.75 21.25 11.4142 21.25 11C21.25 8.18299 20.3224 6.92928 19.55 6.35C19.17 6.06502 18.7904 5.91455 18.4967 5.83528C18.3112 5.81771 18.155 5.79401 18.04 5.77348C17.9756 5.76198 17.9237 5.75138 17.8861 5.74325C17.8673 5.73917 17.8521 5.73571 17.8407 5.73304L17.8264 5.72966L17.8215 5.72846L17.8196 5.72799L17.8188 5.72779C17.8184 5.72769 17.8181 5.72761 18 5C18 4.25 18.0006 4.25 18.0011 4.25L18.0024 4.25L18.0052 4.25002L18.0118 4.25008L18.0296 4.2504C18.0434 4.25074 18.0611 4.25134 18.0824 4.2524C18.1249 4.25453 18.1821 4.25852 18.2518 4.26599C18.3775 4.27946 18.5453 4.30438 18.7427 4.3506C19.0602 4.37298 19.4473 4.36509 19.8181 4.27239C20.205 4.17568 20.5432 3.99547 20.7893 3.68773C21.0337 3.38234 21.25 2.87316 21.25 2C21.25 1.58579 21.5858 1.25 22 1.25ZM18 5V4.25C17.6212 4.25 17.3019 4.53242 17.2556 4.90836C17.2093 5.2843 17.4506 5.63574 17.8181 5.72761L18 5ZM18 14.25C18.4142 14.25 18.75 14.5858 18.75 15V18C18.75 18.4142 18.4142 18.75 18 18.75C17.5858 18.75 17.25 18.4142 17.25 18V15C17.25 14.5858 17.5858 14.25 18 14.25ZM22 14.25C22.4142 14.25 22.75 14.5858 22.75 15V18C22.75 18.4142 22.4142 18.75 22 18.75C21.5858 18.75 21.25 18.4142 21.25 18V15C21.25 14.5858 21.5858 14.25 22 14.25Z" fill="#1C212D"/>
<path fill-rule="evenodd" clip-rule="evenodd" d="M1.64541 14.6454C1.89858 14.3922 2.24196 14.25 2.6 14.25H15.3107L19.8107 18.75H2.6C2.24196 18.75 1.89858 18.6078 1.64541 18.3546C1.39223 18.1014 1.25 17.758 1.25 17.4V15.6C1.25 15.242 1.39223 14.8986 1.64541 14.6454ZM2.75 15.75V17.25H16.1893L14.6893 15.75H2.75Z" fill="#1C212D"/>
<path fill-rule="evenodd" clip-rule="evenodd" d="M2.46967 2.46967C2.76256 2.17678 3.23744 2.17678 3.53033 2.46967L21.5303 20.4697C21.8232 20.7626 21.8232 21.2374 21.5303 21.5303C21.2374 21.8232 20.7626 21.8232 20.4697 21.5303L2.46967 3.53033C2.17678 3.23744 2.17678 2.76256 2.46967 2.46967Z" fill="#1C212D"/>
</svg>
