<svg width="32" height="32" viewBox="0 0 32 32" fill="none" xmlns="http://www.w3.org/2000/svg">
<path d="M23.3399 19.49L22.3399 17.83C22.1299 17.46 21.9399 16.76 21.9399 16.35V13.82C21.9399 11.47 20.5599 9.44 18.5699 8.49C18.0499 7.57 17.0899 7 15.9899 7C14.8999 7 13.9199 7.59 13.3999 8.52C11.4499 9.49 10.0999 11.5 10.0999 13.82V16.35C10.0999 16.76 9.90994 17.46 9.69994 17.82L8.68994 19.49C8.28994 20.16 8.19994 20.9 8.44994 21.58C8.68994 22.25 9.25994 22.77 9.99994 23.02C11.9399 23.68 13.9799 24 16.0199 24C18.0599 24 20.0999 23.68 22.0399 23.03C22.7399 22.8 23.2799 22.27 23.5399 21.58C23.7999 20.89 23.7299 20.13 23.3399 19.49Z" fill="#1C212D"/>
<path d="M18.8297 25.01C18.4097 26.17 17.2997 27 15.9997 27C15.2097 27 14.4297 26.68 13.8797 26.11C13.5597 25.81 13.3197 25.41 13.1797 25C13.3097 25.02 13.4397 25.03 13.5797 25.05C13.8097 25.08 14.0497 25.11 14.2897 25.13C14.8597 25.18 15.4397 25.21 16.0197 25.21C16.5897 25.21 17.1597 25.18 17.7197 25.13C17.9297 25.11 18.1397 25.1 18.3397 25.07C18.4997 25.05 18.6597 25.03 18.8297 25.01Z" fill="#1C212D"/>
</svg>
