<svg width="24" height="24" viewBox="0 0 24 24" fill="none" xmlns="http://www.w3.org/2000/svg">
<path d="M10.3998 4.80005V3.20005C10.3998 2.56353 10.1469 1.95308 9.69686 1.50299C9.24677 1.05291 8.63632 0.800049 7.9998 0.800049C7.36329 0.800049 6.75284 1.05291 6.30275 1.50299C5.85266 1.95308 5.5998 2.56353 5.5998 3.20005V4.80005C5.5998 5.43657 5.85266 6.04702 6.30275 6.49711C6.75284 6.94719 7.36329 7.20005 7.9998 7.20005C8.63632 7.20005 9.24677 6.94719 9.69686 6.49711C10.1469 6.04702 10.3998 5.43657 10.3998 4.80005ZM18.3998 4.80005V3.20005C18.3998 2.56353 18.1469 1.95308 17.6969 1.50299C17.2468 1.05291 16.6363 0.800049 15.9998 0.800049C15.3633 0.800049 14.7528 1.05291 14.3027 1.50299C13.8527 1.95308 13.5998 2.56353 13.5998 3.20005V4.80005C13.5998 5.43657 13.8527 6.04702 14.3027 6.49711C14.7528 6.94719 15.3633 7.20005 15.9998 7.20005C16.6363 7.20005 17.2468 6.94719 17.6969 6.49711C18.1469 6.04702 18.3998 5.43657 18.3998 4.80005ZM23.1998 12V11.2C23.1998 10.5635 22.9469 9.95308 22.4969 9.50299C22.0468 9.05291 21.4363 8.80005 20.7998 8.80005C20.1633 8.80005 19.5528 9.05291 19.1027 9.50299C18.6527 9.95308 18.3998 10.5635 18.3998 11.2V12C18.3998 12.6366 18.6527 13.247 19.1027 13.6971C19.5528 14.1472 20.1633 14.4 20.7998 14.4C21.4363 14.4 22.0468 14.1472 22.4969 13.6971C22.9469 13.247 23.1998 12.6366 23.1998 12V12ZM5.5998 12V11.2C5.5998 10.8849 5.53773 10.5728 5.41712 10.2816C5.2965 9.99043 5.11972 9.72585 4.89686 9.50299C4.674 9.28013 4.40943 9.10335 4.11824 8.98274C3.82706 8.86213 3.51498 8.80005 3.1998 8.80005C2.88463 8.80005 2.57255 8.86213 2.28136 8.98274C1.99018 9.10335 1.72561 9.28013 1.50275 9.50299C1.27989 9.72585 1.10311 9.99043 0.982494 10.2816C0.861882 10.5728 0.799805 10.8849 0.799805 11.2V12C0.799805 12.3152 0.861882 12.6273 0.982494 12.9185C1.10311 13.2097 1.27989 13.4742 1.50275 13.6971C1.72561 13.92 1.99018 14.0967 2.28136 14.2174C2.57255 14.338 2.88463 14.4 3.1998 14.4C3.51498 14.4 3.82706 14.338 4.11824 14.2174C4.40943 14.0967 4.674 13.92 4.89686 13.6971C5.11972 13.4742 5.2965 13.2097 5.41712 12.9185C5.53773 12.6273 5.5998 12.3152 5.5998 12V12ZM4.5678 18.624L9.2366 12.9552C9.57239 12.5474 9.99429 12.2189 10.472 11.9934C10.9498 11.7679 11.4715 11.651 11.9998 11.651C12.5281 11.651 13.0498 11.7679 13.5276 11.9934C14.0053 12.2189 14.4272 12.5474 14.763 12.9552L19.4318 18.624C20.9342 20.448 19.6366 23.2 17.2718 23.2C16.9614 23.2 16.6558 23.128 16.3774 22.9888L15.8014 22.7008C14.6208 22.1107 13.3189 21.8034 11.999 21.8034C10.6791 21.8034 9.37725 22.1107 8.19661 22.7008L7.6206 22.9888C7.34343 23.1276 7.03776 23.1999 6.7278 23.2C4.363 23.2 3.0654 20.448 4.5678 18.624V18.624Z" stroke="#0C0C0C" stroke-width="1.5"/>
</svg>
