<svg width="24" height="24" viewBox="0 0 24 24" fill="none" xmlns="http://www.w3.org/2000/svg">
<path fill-rule="evenodd" clip-rule="evenodd" d="M22.54 2.47951C22.7163 2.66241 22.788 2.92214 22.7306 3.1696C21.4558 8.66118 21.4558 14.3382 22.7306 19.8298C22.7855 20.0665 22.7224 20.3151 22.5613 20.4969C22.4001 20.6787 22.1609 20.7712 21.9193 20.7451C15.3292 20.0323 8.67091 20.0329 2.08063 20.7457C1.83775 20.7719 1.5973 20.6783 1.4362 20.4946C1.27509 20.311 1.21352 20.0604 1.27117 19.823C2.60238 14.3418 2.60238 8.65821 1.27117 3.17702C1.2109 2.92883 1.28106 2.66704 1.45737 2.48226C1.63368 2.29748 1.8919 2.21513 2.14264 2.2637C8.64292 3.52305 15.3571 3.52305 21.8573 2.2637C22.1067 2.21538 22.3637 2.29661 22.54 2.47951ZM21.029 3.93976C15.0648 4.96372 8.94666 4.96437 2.98221 3.9417C4.03827 8.96364 4.03199 14.1271 2.96338 19.1474C8.97464 18.5653 15.0356 18.5652 21.0469 19.1478C20.023 14.1228 20.0171 8.96631 21.029 3.93976Z" fill="#1C212D"/>
</svg>
