<svg width="24" height="24" viewBox="0 0 24 24" fill="none" xmlns="http://www.w3.org/2000/svg">
<path d="M17.7539 14C18.0494 14 18.3419 14.0582 18.6148 14.1713C18.8877 14.2844 19.1357 14.4501 19.3446 14.6591C19.5534 14.868 19.7191 15.1161 19.832 15.389C19.945 15.662 20.0031 15.9546 20.0029 16.25V16.825C20.0029 17.719 19.6829 18.584 19.1019 19.263C17.5319 21.096 15.1449 22.001 11.9999 22.001C8.85393 22.001 6.46793 21.096 4.90193 19.261C4.32218 18.5825 4.00342 17.7195 4.00293 16.827V16.249C4.00293 15.9536 4.06114 15.661 4.17422 15.3881C4.28731 15.1152 4.45306 14.8672 4.662 14.6584C4.87095 14.4495 5.11899 14.2839 5.39197 14.1709C5.66494 14.0579 5.9575 13.9999 6.25293 14H17.7539V14ZM17.7539 15.5H6.25193C6.15349 15.5 6.05601 15.5194 5.96507 15.5571C5.87413 15.5948 5.79152 15.6501 5.72195 15.7197C5.65239 15.7894 5.59724 15.8721 5.55966 15.9631C5.52208 16.0541 5.5028 16.1516 5.50293 16.25V16.827C5.50293 17.362 5.69493 17.88 6.04293 18.287C7.29593 19.756 9.26193 20.501 11.9999 20.501C14.7379 20.501 16.7059 19.756 17.9619 18.288C18.3106 17.8803 18.5021 17.3614 18.5019 16.825V16.249C18.5019 16.0505 18.4232 15.8602 18.2829 15.7197C18.1427 15.5793 17.9524 15.5003 17.7539 15.5V15.5Z" fill="#1C212D"/>
<path d="M12 2.00488C12.6566 2.00488 13.3068 2.13421 13.9134 2.38548C14.52 2.63676 15.0712 3.00506 15.5355 3.46935C15.9998 3.93364 16.3681 4.48484 16.6194 5.09147C16.8707 5.69809 17 6.34827 17 7.00488C17 7.66149 16.8707 8.31167 16.6194 8.9183C16.3681 9.52493 15.9998 10.0761 15.5355 10.5404C15.0712 11.0047 14.52 11.373 13.9134 11.6243C13.3068 11.8756 12.6566 12.0049 12 12.0049C10.6739 12.0049 9.40215 11.4781 8.46447 10.5404C7.52678 9.60273 7 8.33097 7 7.00488C7 5.6788 7.52678 4.40703 8.46447 3.46935C9.40215 2.53167 10.6739 2.00488 12 2.00488ZM12 3.50488C11.5404 3.50488 11.0852 3.59541 10.6606 3.7713C10.236 3.9472 9.85013 4.205 9.52513 4.53001C9.20012 4.85501 8.94231 5.24085 8.76642 5.66549C8.59053 6.09013 8.5 6.54526 8.5 7.00488C8.5 7.46451 8.59053 7.91963 8.76642 8.34427C8.94231 8.76891 9.20012 9.15475 9.52513 9.47976C9.85013 9.80476 10.236 10.0626 10.6606 10.2385C11.0852 10.4144 11.5404 10.5049 12 10.5049C12.9283 10.5049 13.8185 10.1361 14.4749 9.47976C15.1313 8.82338 15.5 7.93314 15.5 7.00488C15.5 6.07663 15.1313 5.18639 14.4749 4.53001C13.8185 3.87363 12.9283 3.50488 12 3.50488V3.50488Z" fill="#1C212D"/>
</svg>
