<svg width="24" height="24" viewBox="0 0 24 24" fill="none" xmlns="http://www.w3.org/2000/svg">
<path d="M12 24C18.6274 24 24 18.6274 24 12C24 5.37258 18.6274 0 12 0C5.37258 0 0 5.37258 0 12C0 18.6274 5.37258 24 12 24Z" fill="#EFF1F5"/>
<path d="M16.7606 11.9301C16.3406 11.8601 15.9706 12.1601 15.9106 12.5701C15.7906 13.4401 15.4005 14.2201 14.8005 14.8201C13.4205 16.2001 11.2806 16.3401 9.73056 15.2701H10.4806C10.8906 15.2701 11.2306 14.9301 11.2306 14.5201C11.2306 14.1101 10.8906 13.7701 10.4806 13.7701H7.81055C7.40055 13.7701 7.06055 14.1101 7.06055 14.5201V17.1901C7.06055 17.6001 7.40055 17.9401 7.81055 17.9401C8.22055 17.9401 8.56055 17.6001 8.56055 17.1901V16.2501C9.56055 17.0601 10.7705 17.4901 11.9905 17.4901C13.3905 17.4901 14.7905 16.9601 15.8605 15.8901C16.6905 15.0601 17.2206 13.9901 17.3906 12.7901C17.4606 12.3601 17.1706 11.9801 16.7606 11.9301Z" fill="#1C212D"/>
<path d="M7.34042 12.0803C7.71042 12.0803 8.03041 11.8103 8.08041 11.4403C8.20041 10.5703 8.59042 9.79031 9.19042 9.19031C10.5704 7.81031 12.7104 7.6703 14.2604 8.7403H13.5104C13.1004 8.7403 12.7604 9.0803 12.7604 9.4903C12.7604 9.9003 13.1004 10.2403 13.5104 10.2403H16.1804C16.5904 10.2403 16.9304 9.9003 16.9304 9.4903V6.82031C16.9304 6.41031 16.5904 6.07031 16.1804 6.07031C15.7704 6.07031 15.4304 6.41031 15.4304 6.82031V7.76031C13.2804 6.02031 10.1304 6.1303 8.14043 8.1203C7.31043 8.9503 6.7804 10.0203 6.6104 11.2203C6.5504 11.6303 6.84042 12.0103 7.25042 12.0703C7.27042 12.0803 7.31042 12.0803 7.34042 12.0803Z" fill="#1C212D"/>
</svg>
