<svg width="24" height="24" viewBox="0 0 24 24" fill="none" xmlns="http://www.w3.org/2000/svg">
<path d="M12 24C18.6274 24 24 18.6274 24 12C24 5.37258 18.6274 0 12 0C5.37258 0 0 5.37258 0 12C0 18.6274 5.37258 24 12 24Z" fill="#EFF1F5"/>
<path d="M16.7606 11.93C16.3406 11.86 15.9706 12.16 15.9106 12.57C15.7906 13.44 15.4005 14.22 14.8005 14.82C13.4205 16.2 11.2806 16.3401 9.73056 15.2701H10.4806C10.8906 15.2701 11.2306 14.9301 11.2306 14.5201C11.2306 14.1101 10.8906 13.7701 10.4806 13.7701H7.81055C7.40055 13.7701 7.06055 14.1101 7.06055 14.5201V17.19C7.06055 17.6 7.40055 17.94 7.81055 17.94C8.22055 17.94 8.56055 17.6 8.56055 17.19V16.25C9.56055 17.06 10.7705 17.49 11.9905 17.49C13.3905 17.49 14.7905 16.96 15.8605 15.89C16.6905 15.06 17.2206 13.99 17.3906 12.79C17.4606 12.36 17.1706 11.98 16.7606 11.93Z" fill="#1C212D"/>
<path d="M7.34042 12.0801C7.71042 12.0801 8.03041 11.8101 8.08041 11.4401C8.20041 10.5701 8.59042 9.79006 9.19042 9.19006C10.5704 7.81006 12.7104 7.67005 14.2604 8.74005H13.5104C13.1004 8.74005 12.7604 9.08005 12.7604 9.49005C12.7604 9.90005 13.1004 10.2401 13.5104 10.2401H16.1804C16.5904 10.2401 16.9304 9.90005 16.9304 9.49005V6.82007C16.9304 6.41007 16.5904 6.07007 16.1804 6.07007C15.7704 6.07007 15.4304 6.41007 15.4304 6.82007V7.76007C13.2804 6.02007 10.1304 6.13006 8.14043 8.12006C7.31043 8.95006 6.7804 10.02 6.6104 11.22C6.5504 11.63 6.84042 12.0101 7.25042 12.0701C7.27042 12.0801 7.31042 12.0801 7.34042 12.0801Z" fill="#1C212D"/>
</svg>
