<svg width="24" height="24" viewBox="0 0 24 24" fill="none" xmlns="http://www.w3.org/2000/svg">
<path fill-rule="evenodd" clip-rule="evenodd" d="M4.28571 3.75C4.14828 3.75 4.01352 3.80551 3.91191 3.90907C3.80983 4.0131 3.75 4.15719 3.75 4.31034V18.7241C3.75 18.8773 3.80983 19.0214 3.91191 19.1254C4.01352 19.229 4.14828 19.2845 4.28571 19.2845H19.7143C19.8517 19.2845 19.9865 19.229 20.0881 19.1254C20.1902 19.0214 20.25 18.8773 20.25 18.7241V4.31034C20.25 4.15719 20.1902 4.0131 20.0881 3.90907C19.9865 3.80551 19.8517 3.75 19.7143 3.75H4.28571ZM2.84124 2.85852C3.22187 2.4706 3.74117 2.25 4.28571 2.25H19.7143C20.2588 2.25 20.7781 2.4706 21.1588 2.85852C21.5389 3.24595 21.75 3.76845 21.75 4.31034V18.7241C21.75 19.266 21.5389 19.7885 21.1588 20.176C20.7781 20.5639 20.2588 20.7845 19.7143 20.7845H19.1786V22H17.6786V20.7845H6.32143V22H4.82143V20.7845H4.28571C3.74117 20.7845 3.22187 20.5639 2.84124 20.176C2.46109 19.7885 2.25 19.266 2.25 18.7241V4.31034C2.25 3.76845 2.46109 3.24595 2.84124 2.85852ZM5.57143 5.52586C5.98564 5.52586 6.32143 5.86165 6.32143 6.27586V10.2069C6.32143 10.6211 5.98564 10.9569 5.57143 10.9569C5.15722 10.9569 4.82143 10.6211 4.82143 10.2069V6.27586C4.82143 5.86165 5.15722 5.52586 5.57143 5.52586ZM14.5714 10.3017C14.093 10.3017 13.6312 10.4953 13.2885 10.8446C12.9453 11.1944 12.75 11.6717 12.75 12.1724C12.75 12.6731 12.9453 13.1505 13.2885 13.5002C13.6312 13.8495 14.093 14.0431 14.5714 14.0431C15.0499 14.0431 15.5116 13.8495 15.8544 13.5002C16.1976 13.1505 16.3929 12.6731 16.3929 12.1724C16.3929 11.6717 16.1976 11.1944 15.8544 10.8446C15.5116 10.4953 15.0499 10.3017 14.5714 10.3017ZM12.2178 9.79403C12.8396 9.16038 13.6859 8.80172 14.5714 8.80172C15.457 8.80172 16.3033 9.16038 16.925 9.79403C17.5463 10.4272 17.8929 11.283 17.8929 12.1724C17.8929 13.0618 17.5463 13.9176 16.925 14.5508C16.3033 15.1845 15.457 15.5431 14.5714 15.5431C13.6859 15.5431 12.8396 15.1845 12.2178 14.5508C11.5965 13.9176 11.25 13.0618 11.25 12.1724C11.25 11.283 11.5965 10.4272 12.2178 9.79403ZM5.57143 12.0776C5.98564 12.0776 6.32143 12.4134 6.32143 12.8276V16.7586C6.32143 17.1728 5.98564 17.5086 5.57143 17.5086C5.15722 17.5086 4.82143 17.1728 4.82143 16.7586V12.8276C4.82143 12.4134 5.15722 12.0776 5.57143 12.0776Z" fill="#1C212D"/>
</svg>
