<svg width="24" height="24" viewBox="0 0 24 24" fill="none" xmlns="http://www.w3.org/2000/svg">
<path fill-rule="evenodd" clip-rule="evenodd" d="M5.35 9.2C4.88056 9.2 4.5 9.58056 4.5 10.05L4.5 19.65C4.5 20.1194 4.88056 20.5 5.35 20.5L18.15 20.5C18.6194 20.5 19 20.1194 19 19.65L19 10.05C19 9.58056 18.6194 9.2 18.15 9.2L16.15 9.2C15.7358 9.2 15.4 8.86421 15.4 8.45C15.4 8.03579 15.7358 7.7 16.15 7.7L18.15 7.7C19.4479 7.7 20.5 8.75213 20.5 10.05L20.5 19.65C20.5 20.9479 19.4479 22 18.15 22L5.35 22C4.05213 22 3 20.9479 3 19.65L3 10.05C3 8.75213 4.05213 7.7 5.35 7.7L7.35 7.7C7.76421 7.7 8.1 8.03579 8.1 8.45C8.1 8.86421 7.76421 9.2 7.35 9.2L5.35 9.2ZM11 3.86095L8.68072 6.18023C8.38783 6.47313 7.91295 6.47313 7.62006 6.18023C7.32717 5.88734 7.32717 5.41247 7.62006 5.11957L11.2201 1.51957C11.3607 1.37892 11.5515 1.2999 11.7504 1.2999C11.9493 1.2999 12.1401 1.37892 12.2807 1.51957L15.8807 5.11957C16.1736 5.41247 16.1736 5.88734 15.8807 6.18023C15.5878 6.47312 15.113 6.47312 14.8201 6.18023L12.5 3.86017L12.5 14.85C12.5 15.2642 12.1642 15.6 11.75 15.6C11.3358 15.6 11 15.2642 11 14.85L11 3.86095Z" fill="#1C212D"/>
</svg>
