

<svg width="24" height="24" viewBox="0 0 24 24" fill="none" xmlns="http://www.w3.org/2000/svg">
<path fill-rule="evenodd" clip-rule="evenodd" d="M5.5 5.25C5.30109 5.25 5.11032 5.32902 4.96967 5.46967C4.82902 5.61032 4.75 5.80109 4.75 6V10.75H19.25V6C19.25 5.80109 19.171 5.61032 19.0303 5.46967C18.8897 5.32902 18.6989 5.25 18.5 5.25H5.5ZM3.90901 4.40901C4.33097 3.98705 4.90326 3.75 5.5 3.75H18.5C19.0967 3.75 19.669 3.98705 20.091 4.40901C20.5129 4.83097 20.75 5.40326 20.75 6V11.5C20.75 11.9142 20.4142 12.25 20 12.25H4C3.58579 12.25 3.25 11.9142 3.25 11.5V6C3.25 5.40326 3.48705 4.83097 3.90901 4.40901ZM3 16.75C3.41421 16.75 3.75 17.0858 3.75 17.5V19.5C3.75 19.9142 3.41421 20.25 3 20.25C2.58579 20.25 2.25 19.9142 2.25 19.5V17.5C2.25 17.0858 2.58579 16.75 3 16.75ZM21 16.75C21.4142 16.75 21.75 17.0858 21.75 17.5V19.5C21.75 19.9142 21.4142 20.25 21 20.25C20.5858 20.25 20.25 19.9142 20.25 19.5V17.5C20.25 17.0858 20.5858 16.75 21 16.75Z" fill="#1C212D"/>
<path fill-rule="evenodd" clip-rule="evenodd" d="M7.90901 8.90901C8.33097 8.48705 8.90326 8.25 9.5 8.25H14.5C15.0967 8.25 15.669 8.48705 16.091 8.90901C16.5129 9.33097 16.75 9.90326 16.75 10.5V10.75H20.5C21.0967 10.75 21.669 10.9871 22.091 11.409C22.5129 11.831 22.75 12.4033 22.75 13V17.5C22.75 17.9142 22.4142 18.25 22 18.25H2C1.58579 18.25 1.25 17.9142 1.25 17.5V13C1.25 12.4033 1.48705 11.831 1.90901 11.409C2.33097 10.9871 2.90326 10.75 3.5 10.75H7.25V10.5C7.25 9.90326 7.48705 9.33097 7.90901 8.90901ZM8.75 10.75H15.25V10.5C15.25 10.3011 15.171 10.1103 15.0303 9.96967C14.8897 9.82902 14.6989 9.75 14.5 9.75H9.5C9.30109 9.75 9.11032 9.82902 8.96967 9.96967C8.82902 10.1103 8.75 10.3011 8.75 10.5V10.75ZM3.5 12.25C3.30109 12.25 3.11032 12.329 2.96967 12.4697C2.82902 12.6103 2.75 12.8011 2.75 13V16.75H21.25V13C21.25 12.8011 21.171 12.6103 21.0303 12.4697C20.8897 12.329 20.6989 12.25 20.5 12.25H3.5Z" fill="#1C212D"/>
</svg>
