<svg width="25" height="24" viewBox="0 0 25 24" fill="none" xmlns="http://www.w3.org/2000/svg">
<path d="M18.9998 19C18.9998 18.5858 18.664 18.25 18.2498 18.25C17.8356 18.25 17.4998 18.5858 17.4998 19H18.9998ZM17.4998 22C17.4998 22.4142 17.8356 22.75 18.2498 22.75C18.664 22.75 18.9998 22.4142 18.9998 22H17.4998ZM17.4998 15C17.4998 15.4142 17.8356 15.75 18.2498 15.75C18.664 15.75 18.9998 15.4142 18.9998 15H17.4998ZM14.2498 13V12.25C14.2268 12.25 14.2038 12.2511 14.181 12.2532L14.2498 13ZM11.2498 10L11.9988 10.0386C11.9994 10.0257 11.9998 10.0129 11.9998 10H11.2498ZM11.9998 4.5C11.9998 4.08579 11.664 3.75 11.2498 3.75C10.8356 3.75 10.4998 4.08579 10.4998 4.5L11.9998 4.5ZM21.4997 15C21.4997 15.4142 21.8355 15.75 22.2497 15.75C22.664 15.75 22.9997 15.4142 22.9997 15H21.4997ZM18.2498 8.9856V8.2356C17.871 8.2356 17.5517 8.51802 17.5054 8.89396C17.4591 9.2699 17.7004 9.62134 18.0679 9.7132L18.2498 8.9856ZM22.9998 6C22.9998 5.58579 22.664 5.25 22.2498 5.25C21.8355 5.25 21.4998 5.58579 21.4998 6H22.9998ZM22.9998 19C22.9998 18.5858 22.664 18.25 22.2498 18.25C21.8356 18.25 21.4998 18.5858 21.4998 19H22.9998ZM21.4998 22C21.4998 22.4142 21.8356 22.75 22.2498 22.75C22.664 22.75 22.9998 22.4142 22.9998 22H21.4998ZM17.4998 19V22H18.9998V19H17.4998ZM18.9998 15C18.9998 13.4 17.4498 12.25 15.2498 12.25V13.75C17.0498 13.75 17.4998 14.6 17.4998 15H18.9998ZM15.2498 12.25H14.2498V13.75H15.2498V12.25ZM11.9998 10L11.9998 4.5L10.4998 4.5L10.4998 10H11.9998ZM22.9997 15C22.9997 12.6459 22.4767 11.0678 21.5702 10.0059C20.6669 8.94768 19.4804 8.52017 18.4317 8.25799L18.0679 9.7132C19.0191 9.95102 19.8326 10.2807 20.4293 10.9797C21.0228 11.675 21.4997 12.8541 21.4997 15H22.9997ZM18.2498 9.7356C18.7407 9.7356 19.2791 9.73717 19.791 9.68746C20.3038 9.63766 20.8426 9.53252 21.3326 9.2899C21.8381 9.03955 22.2732 8.65145 22.5714 8.07823C22.8625 7.51862 22.9998 6.82805 22.9998 6H21.4998C21.4998 6.67195 21.387 7.10458 21.2406 7.38601C21.1013 7.65385 20.9114 7.82465 20.6669 7.94569C20.4069 8.07447 20.0707 8.15324 19.646 8.19448C19.2204 8.23582 18.7589 8.2356 18.2498 8.2356V9.7356ZM21.4998 19V22H22.9998V19H21.4998ZM14.2498 13C14.181 12.2532 14.1813 12.2531 14.1816 12.2531C14.1817 12.2531 14.1821 12.2531 14.1823 12.253C14.1827 12.253 14.1831 12.253 14.1835 12.2529C14.1842 12.2529 14.1849 12.2528 14.1856 12.2528C14.1869 12.2526 14.1879 12.2526 14.1887 12.2525C14.1902 12.2524 14.1908 12.2523 14.1904 12.2524C14.1897 12.2524 14.1852 12.2527 14.1772 12.2529C14.1611 12.2534 14.1315 12.2537 14.0906 12.2519C14.0083 12.2483 13.8838 12.2363 13.7343 12.2013C13.4375 12.1318 13.0479 11.9735 12.6839 11.6095L11.6233 12.6702C12.2237 13.2706 12.8822 13.5424 13.3923 13.6618C13.6464 13.7213 13.865 13.7435 14.0251 13.7505C14.1054 13.754 14.1717 13.7537 14.2214 13.7523C14.2462 13.7515 14.2669 13.7505 14.2832 13.7495C14.2914 13.749 14.2984 13.7485 14.3043 13.748C14.3073 13.7478 14.3099 13.7476 14.3123 13.7474C14.3135 13.7473 14.3146 13.7472 14.3157 13.7471C14.3162 13.7471 14.3167 13.747 14.3172 13.747C14.3174 13.7469 14.3178 13.7469 14.3179 13.7469C14.3182 13.7469 14.3186 13.7468 14.2498 13ZM12.6839 11.6095C12.3186 11.2441 12.1474 10.84 12.0669 10.5234C12.0266 10.365 12.01 10.2318 12.0033 10.1427C12 10.0984 11.9992 10.0658 11.999 10.0474C11.999 10.0382 11.9991 10.0327 11.9991 10.0311C11.9991 10.0303 11.9991 10.0305 11.9991 10.0317C11.9991 10.0323 11.999 10.0332 11.999 10.0344C11.999 10.0349 11.9989 10.0356 11.9989 10.0363C11.9989 10.0366 11.9989 10.037 11.9988 10.0374C11.9988 10.0376 11.9988 10.0379 11.9988 10.038C11.9988 10.0383 11.9988 10.0386 11.2498 10C10.5008 9.96141 10.5008 9.96173 10.5007 9.96206C10.5007 9.96217 10.5007 9.9625 10.5007 9.96273C10.5007 9.96319 10.5007 9.96366 10.5006 9.96416C10.5006 9.96515 10.5005 9.96621 10.5005 9.96735C10.5004 9.96963 10.5003 9.97221 10.5002 9.97508C10.5 9.98083 10.4997 9.98775 10.4995 9.9958C10.4992 10.0119 10.4989 10.0326 10.4991 10.0574C10.4994 10.1071 10.5014 10.1738 10.5075 10.2548C10.5196 10.4162 10.5481 10.6371 10.6132 10.8932C10.7435 11.4054 11.0243 12.0712 11.6233 12.6702L12.6839 11.6095Z" fill="#1C212D"/>
<path d="M13.65 19H2.85C2.51863 19 2.25 19.2686 2.25 19.6V21.4C2.25 21.7314 2.51863 22 2.85 22H13.65C13.9814 22 14.25 21.7314 14.25 21.4V19.6C14.25 19.2686 13.9814 19 13.65 19Z" stroke="#1C212D" stroke-width="1.5"/>
</svg>
