<svg width="24" height="24" viewBox="0 0 24 24" fill="none" xmlns="http://www.w3.org/2000/svg">
<path fill-rule="evenodd" clip-rule="evenodd" d="M9 4.25C9.41421 4.25 9.75 4.58579 9.75 5V8C9.75 8.41421 9.41421 8.75 9 8.75C8.58579 8.75 8.25 8.41421 8.25 8V5C8.25 4.58579 8.58579 4.25 9 4.25ZM12 4.25C12.4142 4.25 12.75 4.58579 12.75 5V8C12.75 8.41421 12.4142 8.75 12 8.75C11.5858 8.75 11.25 8.41421 11.25 8V5C11.25 4.58579 11.5858 4.25 12 4.25ZM15 4.25C15.4142 4.25 15.75 4.58579 15.75 5V8C15.75 8.41421 15.4142 8.75 15 8.75C14.5858 8.75 14.25 8.41421 14.25 8V5C14.25 4.58579 14.5858 4.25 15 4.25ZM2.25 11C2.25 10.5858 2.58579 10.25 3 10.25H21C21.1989 10.25 21.3897 10.329 21.5303 10.4697C21.671 10.6103 21.75 10.8011 21.75 11C21.75 13.3206 20.8281 15.5462 19.1872 17.1872C18.7898 17.5846 18.3581 17.9398 17.899 18.25H21C21.4142 18.25 21.75 18.5858 21.75 19C21.75 19.4142 21.4142 19.75 21 19.75H3C2.58579 19.75 2.25 19.4142 2.25 19C2.25 18.5858 2.58579 18.25 3 18.25H6.10096C5.64192 17.9398 5.21022 17.5846 4.81282 17.1872C3.17187 15.5462 2.25 13.3206 2.25 11ZM3.78887 11.75C3.96014 13.3972 4.69178 14.9448 5.87348 16.1265C7.23311 17.4862 9.07718 18.25 11 18.25H13C14.9228 18.25 16.7669 17.4862 18.1265 16.1265C19.3082 14.9448 20.0399 13.3972 20.2111 11.75H3.78887Z" fill="#1C212D"/>
</svg>
