<svg width="16" height="16" viewBox="0 0 16 16" fill="none" xmlns="http://www.w3.org/2000/svg">
<path d="M8.92663 3.43246L9.86663 5.31246C9.99329 5.57246 10.3333 5.81913 10.62 5.87246L12.32 6.15246C13.4066 6.33246 13.66 7.11913 12.88 7.90579L11.5533 9.23246C11.3333 9.45246 11.2066 9.88579 11.28 10.1991L11.66 11.8391C11.96 13.1325 11.2666 13.6391 10.1266 12.9591L8.53329 12.0125C8.24663 11.8391 7.76663 11.8391 7.47996 12.0125L5.88663 12.9591C4.74663 13.6325 4.05329 13.1325 4.35329 11.8391L4.73329 10.1991C4.79329 9.87913 4.66663 9.44579 4.44663 9.22579L3.11996 7.89913C2.33996 7.11913 2.59329 6.33246 3.67996 6.14579L5.37996 5.86579C5.66663 5.81913 6.00663 5.5658 6.13329 5.3058L7.07329 3.42579C7.58663 2.41246 8.41329 2.41246 8.92663 3.43246Z" fill="#1C212D"/>
</svg>
