<svg width="40" height="40" viewBox="0 0 40 40" fill="none" xmlns="http://www.w3.org/2000/svg">
<g clip-path="url(#clip0_36_155301)">
<path d="M10.1523 19.9999V13.5256C10.1716 12.2529 10.4417 10.9966 10.9473 9.82858C11.4529 8.66054 12.184 7.60374 13.0988 6.71874C14.0135 5.83375 15.0939 5.13794 16.278 4.67119C17.4621 4.20444 18.7266 3.97593 19.9992 3.99875C21.2718 3.97593 22.5363 4.20444 23.7204 4.67119C24.9045 5.13794 25.9849 5.83375 26.8996 6.71874C27.8144 7.60374 28.5455 8.66054 29.0511 9.82858C29.5567 10.9966 29.8268 12.2529 29.8461 13.5256V19.9999" stroke="#4E545F" stroke-width="2.85714" stroke-linecap="round" stroke-linejoin="round"/>
<path d="M6.45976 16.3075H8.92147C9.24792 16.3075 9.56099 16.4372 9.79182 16.668C10.0227 16.8988 10.1523 17.2119 10.1523 17.5384V24.9235C10.1523 25.2499 10.0227 25.563 9.79182 25.7938C9.56099 26.0247 9.24792 26.1543 8.92147 26.1543H6.45976C5.80687 26.1543 5.18073 25.895 4.71907 25.4333C4.25741 24.9717 3.99805 24.3455 3.99805 23.6926V18.7692C3.99805 18.1163 4.25741 17.4902 4.71907 17.0285C5.18073 16.5669 5.80687 16.3075 6.45976 16.3075V16.3075Z" stroke="#4E545F" stroke-width="2.85714" stroke-linecap="round" stroke-linejoin="round"/>
<path d="M33.5383 26.1541H31.0766C30.7501 26.1541 30.4371 26.0244 30.2062 25.7935C29.9754 25.5627 29.8457 25.2496 29.8457 24.9232V17.5381C29.8457 17.2116 29.9754 16.8985 30.2062 16.6677C30.4371 16.4369 30.7501 16.3072 31.0766 16.3072H33.5383C34.1912 16.3072 34.8173 16.5666 35.279 17.0282C35.7406 17.4899 36 18.116 36 18.7689V23.6923C36 24.3452 35.7406 24.9714 35.279 25.433C34.8173 25.8947 34.1912 26.1541 33.5383 26.1541V26.1541Z" stroke="#4E545F" stroke-width="2.85714" stroke-linecap="round" stroke-linejoin="round"/>
<path d="M24.9238 32.9238C26.2296 32.9238 27.4819 32.4051 28.4052 31.4818C29.3285 30.5584 29.8473 29.3061 29.8473 28.0004V22.4615" stroke="#4E545F" stroke-width="2.85714" stroke-linecap="round" stroke-linejoin="round"/>
<path d="M24.923 32.9241C24.923 33.7402 24.5988 34.5229 24.0218 35.1C23.4447 35.6771 22.662 36.0013 21.8459 36.0013H18.1533C17.3372 36.0013 16.5545 35.6771 15.9774 35.1C15.4004 34.5229 15.0762 33.7402 15.0762 32.9241C15.0762 32.108 15.4004 31.3253 15.9774 30.7483C16.5545 30.1712 17.3372 29.847 18.1533 29.847H21.8459C22.662 29.847 23.4447 30.1712 24.0218 30.7483C24.5988 31.3253 24.923 32.108 24.923 32.9241Z" stroke="#4E545F" stroke-width="2.85714" stroke-linecap="round" stroke-linejoin="round"/>
</g>
<defs>
<clipPath id="clip0_36_155301">
<rect width="40" height="40" fill="white"/>
</clipPath>
</defs>
</svg>
