<svg width="36" height="36" viewBox="0 0 36 36" fill="none" xmlns="http://www.w3.org/2000/svg">
<path d="M18 34C26.8365 34 34 26.8365 34 18C34 9.16346 26.8365 2 18 2C9.16346 2 2 9.16346 2 18C2 26.8365 9.16346 34 18 34Z" fill="#34AADF"/>
<path d="M9.10355 17.5325C9.10355 17.5325 17.0645 14.2398 19.8255 13.0803C20.8839 12.6165 24.4733 11.1324 24.4733 11.1324C24.4733 11.1324 26.1299 10.4832 25.9918 12.06C25.9458 12.7093 25.5777 14.9818 25.2095 17.4398C24.6573 20.9181 24.0591 24.7211 24.0591 24.7211C24.0591 24.7211 23.9671 25.7878 23.1848 25.9733C22.4025 26.1588 21.114 25.324 20.8839 25.1385C20.6998 24.9994 17.4326 22.9123 16.2362 21.892C15.9141 21.6138 15.5459 21.0573 16.2822 20.408C17.9388 18.8775 19.9175 16.976 21.114 15.7702C21.6662 15.2137 22.2184 13.9151 19.9175 15.4919C16.6504 17.7644 13.4292 19.8978 13.4292 19.8978C13.4292 19.8978 12.6929 20.3616 11.3124 19.9442C9.93181 19.5268 8.32121 18.9703 8.32121 18.9703C8.32121 18.9703 7.21686 18.2746 9.10355 17.5325Z" fill="white"/>
</svg>
