<svg width="12" height="12" viewBox="0 0 12 12" fill="none" xmlns="http://www.w3.org/2000/svg">
<path fill-rule="evenodd" clip-rule="evenodd" d="M0.625 6C0.625 8.965 3.035 11.375 6 11.375C8.965 11.375 11.375 8.965 11.375 6C11.375 3.035 8.965 0.625 6 0.625C3.035 0.625 0.625 3.035 0.625 6ZM5.02473 7.68005C5.09473 7.75005 5.18973 7.79005 5.28973 7.79005C5.38973 7.79005 5.48473 7.75005 5.55473 7.68005L8.38973 4.84505C8.53473 4.70005 8.53473 4.46005 8.38973 4.31505C8.24473 4.17005 8.00473 4.17005 7.85973 4.31505L5.28973 6.88505L4.13973 5.73505C3.99473 5.59005 3.75473 5.59005 3.60973 5.73505C3.46473 5.88005 3.46473 6.12005 3.60973 6.26505L5.02473 7.68005Z" fill="#AFB5C0"/>
</svg>
