<svg width="20" height="20" viewBox="0 0 20 20" fill="none" xmlns="http://www.w3.org/2000/svg">
<path d="M10.0003 18.9584C5.05866 18.9584 1.04199 14.9417 1.04199 10.0001C1.04199 5.05841 5.05866 1.04175 10.0003 1.04175C14.942 1.04175 18.9587 5.05841 18.9587 10.0001C18.9587 14.9417 14.942 18.9584 10.0003 18.9584ZM10.0003 2.29175C5.75033 2.29175 2.29199 5.75008 2.29199 10.0001C2.29199 14.2501 5.75033 17.7084 10.0003 17.7084C14.2503 17.7084 17.7087 14.2501 17.7087 10.0001C17.7087 5.75008 14.2503 2.29175 10.0003 2.29175Z" fill="#1C212D"/>
<path d="M8.81621 12.9834C8.64954 12.9834 8.49121 12.9167 8.37454 12.8001L6.01621 10.4417C5.77454 10.2001 5.77454 9.80008 6.01621 9.55841C6.25788 9.31675 6.65788 9.31675 6.89954 9.55841L8.81621 11.4751L13.0995 7.19175C13.3412 6.95008 13.7412 6.95008 13.9829 7.19175C14.2245 7.43341 14.2245 7.83341 13.9829 8.07508L9.25788 12.8001C9.14121 12.9167 8.98288 12.9834 8.81621 12.9834Z" fill="#1C212D"/>
</svg>
