<svg width="28" height="20" viewBox="0 0 28 20" fill="none" xmlns="http://www.w3.org/2000/svg">
<rect x="0.25" y="0.25" width="27.5" height="19.5" rx="1.75" fill="white" stroke="#F5F5F5" stroke-width="0.5"/>
<mask id="mask0_36_157092" style="mask-type:alpha" maskUnits="userSpaceOnUse" x="0" y="0" width="28" height="20">
<rect x="0.25" y="0.25" width="27.5" height="19.5" rx="1.75" fill="white" stroke="white" stroke-width="0.5"/>
</mask>
<g mask="url(#mask0_36_157092)">
<path fill-rule="evenodd" clip-rule="evenodd" d="M0 6.66667H28V0H0V6.66667Z" fill="#D9101C"/>
<path fill-rule="evenodd" clip-rule="evenodd" d="M0 20H28V13.3333H0V20Z" fill="#0F7811"/>
<path fill-rule="evenodd" clip-rule="evenodd" d="M13.3333 8.66667C13.3333 9.03486 13.0349 9.33333 12.6667 9.33333C12.2985 9.33333 12 9.03486 12 8.66667C12 8.29848 12.2985 8 12.6667 8C13.0349 8 13.3333 8.29848 13.3333 8.66667ZM14.6663 10C14.6663 10.1206 14.6343 10.3767 14.5783 10.6666H15.3333C15.7015 10.6666 16 10.9651 16 11.3333C16 11.7015 15.7015 12 15.3333 12H14.0029L13.9997 12L13.9965 12H12.6667C12.2985 12 12 11.7015 12 11.3333C12 10.9651 12.2985 10.6666 12.6667 10.6666H13.421C13.365 10.3767 13.333 10.1206 13.333 10C13.333 9.63181 13.6315 9.33333 13.9997 9.33333C14.3679 9.33333 14.6663 9.63181 14.6663 10ZM15.9993 8.66667C15.9993 9.03486 15.7009 9.33333 15.3327 9.33333C14.9645 9.33333 14.666 9.03486 14.666 8.66667C14.666 8.29848 14.9645 8 15.3327 8C15.7009 8 15.9993 8.29848 15.9993 8.66667ZM17.9997 10.6667C18.3679 10.6667 18.6663 10.3682 18.6663 10C18.6663 9.63181 18.3679 9.33333 17.9997 9.33333C17.6315 9.33333 17.333 9.63181 17.333 10C17.333 10.3682 17.6315 10.6667 17.9997 10.6667ZM10.6663 10C10.6663 10.3682 10.3679 10.6667 9.99967 10.6667C9.63148 10.6667 9.33301 10.3682 9.33301 10C9.33301 9.63181 9.63148 9.33333 9.99967 9.33333C10.3679 9.33333 10.6663 9.63181 10.6663 10Z" fill="#FAD14E"/>
</g>
</svg>
