<svg width="24" height="24" viewBox="0 0 24 24" fill="none" xmlns="http://www.w3.org/2000/svg">
<path d="M11.25 6C11.25 6.19891 11.171 6.38968 11.0303 6.53033C10.8897 6.67098 10.6989 6.75 10.5 6.75H9C8.80109 6.75 8.61032 6.67098 8.46967 6.53033C8.32902 6.38968 8.25 6.19891 8.25 6C8.25 5.80109 8.32902 5.61032 8.46967 5.46967C8.61032 5.32902 8.80109 5.25 9 5.25H10.5C10.6989 5.25 10.8897 5.32902 11.0303 5.46967C11.171 5.61032 11.25 5.80109 11.25 6ZM16.05 18.5344L16.3688 20.7844C16.4013 20.9973 16.3872 21.2148 16.3276 21.4218C16.268 21.6288 16.1643 21.8205 16.0235 21.9835C15.8827 22.1466 15.7082 22.2772 15.5121 22.3664C15.316 22.4555 15.1029 22.5011 14.8875 22.5H9.1125C8.89708 22.5011 8.68397 22.4555 8.48786 22.3664C8.29175 22.2772 8.1173 22.1466 7.97651 21.9835C7.83573 21.8205 7.73196 21.6288 7.67236 21.4218C7.61275 21.2148 7.59873 20.9973 7.63125 20.7844L7.95 18.5344C6.46208 17.7846 5.2115 16.6365 4.33753 15.218C3.46357 13.7994 3.00053 12.1662 3 10.5C3 10.3011 3.07902 10.1103 3.21967 9.96967C3.36032 9.82902 3.55109 9.75 3.75 9.75H5.25V3.75C5.25 3.35218 5.40804 2.97064 5.68934 2.68934C5.97064 2.40804 6.35218 2.25 6.75 2.25H17.25C17.6478 2.25 18.0294 2.40804 18.3107 2.68934C18.592 2.97064 18.75 3.35218 18.75 3.75V9.75H20.25C20.4489 9.75 20.6397 9.82902 20.7803 9.96967C20.921 10.1103 21 10.3011 21 10.5C20.9995 12.1662 20.5364 13.7994 19.6625 15.218C18.7885 16.6365 17.5379 17.7846 16.05 18.5344ZM6.75 9.75H17.25V3.75H6.75V9.75ZM14.6156 19.1156C12.9095 19.628 11.0905 19.628 9.38437 19.1156L9.1125 21H14.8875L14.6156 19.1156ZM19.4625 11.25H4.5375C4.72321 13.1001 5.58958 14.8153 6.9685 16.0628C8.34742 17.3102 10.1406 18.0009 12 18.0009C13.8594 18.0009 15.6526 17.3102 17.0315 16.0628C18.4104 14.8153 19.2768 13.1001 19.4625 11.25Z" fill="#1C212D"/>
</svg>
