<svg width="24" height="24" viewBox="0 0 24 24" fill="none" xmlns="http://www.w3.org/2000/svg">
<path fill-rule="evenodd" clip-rule="evenodd" d="M1.25 9C1.25 8.58579 1.58579 8.25 2 8.25H18C18.4142 8.25 18.75 8.58579 18.75 9V13C18.75 13.4142 18.4142 13.75 18 13.75H2C1.58579 13.75 1.25 13.4142 1.25 13V9ZM2.75 9.75V12.25H17.25V9.75H2.75Z" fill="#1C212D"/>
<path fill-rule="evenodd" clip-rule="evenodd" d="M3.5 2.75C3.30109 2.75 3.11032 2.82902 2.96967 2.96967C2.82902 3.11032 2.75 3.30109 2.75 3.5V16.5C2.75 16.6989 2.82902 16.8897 2.96967 17.0303C3.11032 17.171 3.30109 17.25 3.5 17.25H16.5C16.6989 17.25 16.8897 17.171 17.0303 17.0303C17.171 16.8897 17.25 16.6989 17.25 16.5V6C17.25 5.58579 17.5858 5.25 18 5.25C18.4142 5.25 18.75 5.58579 18.75 6V16.5C18.75 17.0967 18.5129 17.669 18.091 18.091C17.669 18.5129 17.0967 18.75 16.5 18.75H6.75V20.5C6.75 20.6989 6.82902 20.8897 6.96967 21.0303C7.11032 21.171 7.30109 21.25 7.5 21.25H20.5C20.6989 21.25 20.8897 21.171 21.0303 21.0303C21.171 20.8897 21.25 20.6989 21.25 20.5V3.5C21.25 3.30109 21.171 3.11032 21.0303 2.96967C20.8897 2.82902 20.6989 2.75 20.5 2.75H3.5ZM5.25 18.75V20.5C5.25 21.0967 5.48705 21.669 5.90901 22.091C6.33097 22.5129 6.90326 22.75 7.5 22.75H20.5C21.0967 22.75 21.669 22.5129 22.091 22.091C22.5129 21.669 22.75 21.0967 22.75 20.5V3.5C22.75 2.90326 22.5129 2.33097 22.091 1.90901C21.669 1.48705 21.0967 1.25 20.5 1.25H3.5C2.90326 1.25 2.33097 1.48705 1.90901 1.90901C1.48705 2.33097 1.25 2.90326 1.25 3.5V16.5C1.25 17.0967 1.48705 17.669 1.90901 18.091C2.33097 18.5129 2.90326 18.75 3.5 18.75H5.25Z" fill="#1C212D"/>
</svg>
