<svg width="20" height="20" viewBox="0 0 20 20" fill="none" xmlns="http://www.w3.org/2000/svg">
<path d="M17.4991 5.60839C17.4824 5.60839 17.4574 5.60839 17.4324 5.60839C13.0241 5.16673 8.62408 5.00006 4.26574 5.44173L2.56574 5.60839C2.21574 5.64173 1.90741 5.39173 1.87408 5.04173C1.84074 4.69173 2.09074 4.39173 2.43241 4.35839L4.13241 4.19173C8.56574 3.74173 13.0574 3.91673 17.5574 4.35839C17.8991 4.39173 18.1491 4.70006 18.1157 5.04173C18.0907 5.36673 17.8157 5.60839 17.4991 5.60839Z" fill="#1C212D"/>
<path d="M7.08265 4.76675C7.04932 4.76675 7.01598 4.76675 6.97432 4.75842C6.64098 4.70008 6.40765 4.37508 6.46598 4.04175L6.64932 2.95008C6.78265 2.15008 6.96598 1.04175 8.90765 1.04175H11.091C13.041 1.04175 13.2243 2.19175 13.3493 2.95841L13.5326 4.04175C13.591 4.38341 13.3576 4.70842 13.0243 4.75842C12.6826 4.81675 12.3576 4.58342 12.3076 4.25008L12.1243 3.16675C12.0076 2.44175 11.9826 2.30008 11.0993 2.30008H8.91598C8.03265 2.30008 8.01598 2.41675 7.89098 3.15841L7.69932 4.24175C7.64932 4.55008 7.38265 4.76675 7.08265 4.76675Z" fill="#1C212D"/>
<path d="M12.674 18.9585H7.32402C4.41569 18.9585 4.29902 17.3502 4.20735 16.0502L3.66569 7.65852C3.64069 7.31685 3.90735 7.01685 4.24902 6.99185C4.59902 6.97519 4.89069 7.23352 4.91569 7.57519L5.45735 15.9669C5.54902 17.2335 5.58235 17.7085 7.32402 17.7085H12.674C14.424 17.7085 14.4574 17.2335 14.5407 15.9669L15.0824 7.57519C15.1074 7.23352 15.4074 6.97519 15.749 6.99185C16.0907 7.01685 16.3574 7.30852 16.3324 7.65852L15.7907 16.0502C15.699 17.3502 15.5824 18.9585 12.674 18.9585Z" fill="#1C212D"/>
<path d="M11.3834 14.3751H8.6084C8.26673 14.3751 7.9834 14.0918 7.9834 13.7501C7.9834 13.4085 8.26673 13.1251 8.6084 13.1251H11.3834C11.7251 13.1251 12.0084 13.4085 12.0084 13.7501C12.0084 14.0918 11.7251 14.3751 11.3834 14.3751Z" fill="#1C212D"/>
<path d="M12.0827 11.0417H7.91602C7.57435 11.0417 7.29102 10.7584 7.29102 10.4167C7.29102 10.0751 7.57435 9.79175 7.91602 9.79175H12.0827C12.4243 9.79175 12.7077 10.0751 12.7077 10.4167C12.7077 10.7584 12.4243 11.0417 12.0827 11.0417Z" fill="#1C212D"/>
</svg>
