<svg width="28" height="20" viewBox="0 0 28 20" fill="none" xmlns="http://www.w3.org/2000/svg">
<rect x="0.25" y="0.25" width="27.5" height="19.5" rx="1.75" fill="white" stroke="#F5F5F5" stroke-width="0.5"/>
<mask id="mask0_36_157230" style="mask-type:alpha" maskUnits="userSpaceOnUse" x="0" y="0" width="28" height="20">
<rect x="0.25" y="0.25" width="27.5" height="19.5" rx="1.75" fill="white" stroke="white" stroke-width="0.5"/>
</mask>
<g mask="url(#mask0_36_157230)">
<path fill-rule="evenodd" clip-rule="evenodd" d="M0 6.66667H28V0H0V6.66667Z" fill="#04AAC8"/>
<path fill-rule="evenodd" clip-rule="evenodd" d="M0 20H28V13.3333H0V20Z" fill="#23C840"/>
<path fill-rule="evenodd" clip-rule="evenodd" d="M4.66699 5.33337C5.07826 5.33337 5.46053 5.20924 5.77839 4.9964C5.74146 4.99884 5.70421 5.00008 5.66667 5.00008C4.74619 5.00008 4 4.25389 4 3.33341C4 2.41294 4.74619 1.66675 5.66667 1.66675C5.70425 1.66675 5.74155 1.66799 5.77852 1.67044C5.46064 1.45754 5.07832 1.33337 4.66699 1.33337C3.56242 1.33337 2.66699 2.2288 2.66699 3.33337C2.66699 4.43794 3.56242 5.33337 4.66699 5.33337ZM8.00033 4.66671C8.00033 5.0349 7.70185 5.33337 7.33366 5.33337C6.96547 5.33337 6.66699 5.0349 6.66699 4.66671C6.66699 4.29852 6.96547 4.00004 7.33366 4.00004C7.70185 4.00004 8.00033 4.29852 8.00033 4.66671ZM10.0007 2.66671C10.3688 2.66671 10.6673 2.36823 10.6673 2.00004C10.6673 1.63185 10.3688 1.33337 10.0007 1.33337C9.63246 1.33337 9.33398 1.63185 9.33398 2.00004C9.33398 2.36823 9.63246 2.66671 10.0007 2.66671ZM13.3333 2.00004C13.3333 2.36823 13.0349 2.66671 12.6667 2.66671C12.2985 2.66671 12 2.36823 12 2.00004C12 1.63185 12.2985 1.33337 12.6667 1.33337C13.0349 1.33337 13.3333 1.63185 13.3333 2.00004ZM12.6667 5.33333C13.0349 5.33333 13.3333 5.03486 13.3333 4.66667C13.3333 4.29848 13.0349 4 12.6667 4C12.2985 4 12 4.29848 12 4.66667C12 5.03486 12.2985 5.33333 12.6667 5.33333ZM10.6673 4.66667C10.6673 5.03486 10.3688 5.33333 10.0007 5.33333C9.63246 5.33333 9.33398 5.03486 9.33398 4.66667C9.33398 4.29848 9.63246 4 10.0007 4C10.3688 4 10.6673 4.29848 10.6673 4.66667Z" fill="white"/>
</g>
</svg>
