<svg width="36" height="36" viewBox="0 0 36 36" fill="none" xmlns="http://www.w3.org/2000/svg">
<g clip-path="url(#clip0_36_158239)">
<path d="M18 34C26.8365 34 34 26.8365 34 18C34 9.16346 26.8365 2 18 2C9.16346 2 2 9.16346 2 18C2 26.8365 9.16346 34 18 34Z" fill="#7360F2"/>
<path d="M25.7424 9.95064C25.2184 9.49208 23.1006 8.03416 18.3834 8.01435C18.3834 8.01435 12.8207 7.69624 10.1089 10.0551C8.59942 11.4869 8.06839 13.5819 8.01238 16.1793C7.95637 18.7768 7.8839 23.6445 12.8318 24.9644H12.8365L12.8333 26.9784C12.8333 26.9784 12.8017 27.7938 13.3678 27.96C14.0527 28.1617 14.4546 27.542 15.1084 26.8739C15.4672 26.5072 15.9628 25.9685 16.3362 25.5568C19.7202 25.8269 22.3227 25.2095 22.6183 25.1183C23.3015 24.9082 27.1678 24.4383 27.7966 19.5711C28.4456 14.5543 27.4826 11.3809 25.7424 9.95064ZM26.3158 19.2113C25.7851 23.2754 22.6493 23.5308 22.0712 23.7066C21.8253 23.7816 19.5395 24.3209 16.6651 24.143C16.6651 24.143 14.5232 26.5933 13.8542 27.2305C13.7498 27.3301 13.627 27.3703 13.5451 27.3505C13.4299 27.3238 13.3982 27.1944 13.3995 27.0054C13.4014 26.7353 13.4178 23.6586 13.4178 23.6586C13.4178 23.6586 13.4153 23.6586 13.4178 23.6586C9.23234 22.5566 9.47633 18.4136 9.5238 16.2442C9.57127 14.0747 10.001 12.2975 11.2776 11.1021C13.5713 9.13195 18.2964 9.42635 18.2964 9.42635C22.2867 9.44286 24.1987 10.5824 24.6421 10.9641C26.1143 12.1594 26.8643 15.0197 26.3158 19.2101V19.2113Z" fill="white"/>
<path fill-rule="evenodd" clip-rule="evenodd" d="M18.4642 14.4896C18.4719 14.35 18.5974 14.2428 18.7446 14.2501C19.295 14.2773 19.753 14.4354 20.0792 14.7552C20.4042 15.0738 20.5635 15.5189 20.5914 16.0535C20.5987 16.193 20.4854 16.3118 20.3382 16.3187C20.191 16.3256 20.0658 16.2181 20.0585 16.0785C20.0346 15.6209 19.9022 15.3094 19.6957 15.107C19.4905 14.9057 19.1773 14.7782 18.7168 14.7554C18.5696 14.7481 18.4566 14.6291 18.4642 14.4896Z" fill="white"/>
<path fill-rule="evenodd" clip-rule="evenodd" d="M18.0603 13.1266C18.071 12.9873 18.1989 12.8826 18.3458 12.8928C19.4661 12.9705 20.3678 13.3335 21.0247 14.0135L21.0248 14.0136C21.6745 14.6868 21.9832 15.5243 21.9608 16.5067C21.9576 16.6464 21.8356 16.7571 21.6883 16.7541C21.541 16.7511 21.4242 16.6354 21.4274 16.4957C21.4472 15.6294 21.1785 14.9224 20.6312 14.3552C20.0855 13.7903 19.3226 13.4679 18.3069 13.3974C18.1599 13.3872 18.0495 13.266 18.0603 13.1266Z" fill="white"/>
<path fill-rule="evenodd" clip-rule="evenodd" d="M17.5889 11.8308C17.5899 11.6911 17.7102 11.5786 17.8575 11.5796C19.4057 11.5898 20.7143 12.0786 21.765 13.0499C22.8245 14.0294 23.3484 15.3628 23.3617 17.0189C23.3629 17.1586 23.2443 17.2727 23.097 17.2738C22.9497 17.2749 22.8293 17.1625 22.8282 17.0227C22.8157 15.4709 22.3289 14.2778 21.3926 13.4122C20.4475 12.5385 19.274 12.0949 17.8538 12.0856C17.7065 12.0846 17.5878 11.9705 17.5889 11.8308Z" fill="white"/>
<path d="M18.784 19.4545C18.784 19.4545 19.159 19.4845 19.3609 19.2486L19.7545 18.779C19.9444 18.5461 20.4027 18.3975 20.8514 18.6346C21.1877 18.8165 21.5141 19.0142 21.8296 19.227C22.1274 19.4347 22.7372 19.9173 22.7391 19.9173C23.0296 20.1499 23.0967 20.4914 22.8989 20.8515C22.8989 20.8536 22.8973 20.8572 22.8973 20.859C22.6795 21.2171 22.4029 21.5401 22.078 21.8157C22.0742 21.8175 22.0742 21.8193 22.0707 21.8211C21.7884 22.0448 21.5111 22.172 21.2387 22.2026C21.1986 22.2092 21.1579 22.2117 21.1172 22.2098C20.9971 22.2109 20.8776 22.1934 20.7634 22.1582L20.7546 22.1459C20.3349 22.0336 19.6343 21.7527 18.4675 21.1423C17.7923 20.7932 17.1495 20.3905 16.5459 19.9386C16.2434 19.7122 15.9549 19.4695 15.6817 19.2117L15.6526 19.1841L15.6235 19.1565L15.5944 19.1289C15.5845 19.1199 15.575 19.1106 15.5652 19.1013C15.2934 18.8422 15.0375 18.5686 14.7988 18.2817C14.3222 17.7094 13.8976 17.0999 13.5294 16.4597C12.8858 15.3529 12.5896 14.6891 12.4712 14.2906L12.4582 14.2822C12.4211 14.1738 12.4028 14.0605 12.4041 13.9466C12.4019 13.9081 12.4043 13.8694 12.4114 13.8314C12.4454 13.5735 12.5796 13.3103 12.8142 13.0418C12.8161 13.0385 12.818 13.0385 12.8199 13.0349C13.1105 12.7268 13.4511 12.4646 13.8288 12.2582C13.8307 12.2582 13.8345 12.2564 13.8367 12.2564C14.2165 12.0689 14.5766 12.1325 14.8216 12.4065C14.8235 12.4083 15.3314 12.9866 15.5494 13.269C15.7739 13.5684 15.9824 13.8783 16.1741 14.1975C16.4241 14.6228 16.2675 15.0582 16.0219 15.2377L15.5266 15.611C15.2766 15.8025 15.3095 16.1581 15.3095 16.1581C15.3095 16.1581 16.0431 18.791 18.784 19.4545Z" fill="white"/>
</g>
<defs>
<clipPath id="clip0_36_158239">
<path d="M0 18C0 8.05888 8.05888 0 18 0C27.9411 0 36 8.05888 36 18C36 27.9411 27.9411 36 18 36C8.05888 36 0 27.9411 0 18Z" fill="white"/>
</clipPath>
</defs>
</svg>
