<svg width="44" height="14" viewBox="0 0 44 14" fill="none" xmlns="http://www.w3.org/2000/svg">
<path d="M19.2028 13.5987H15.7692L17.9151 0.41046H21.3491L19.2028 13.5987ZM12.8806 0.41046L9.60718 9.48145L9.21983 7.52812L9.22019 7.52882L8.06484 1.59791C8.06484 1.59791 7.92514 0.41046 6.43606 0.41046H1.02444L0.960938 0.633769C0.960938 0.633769 2.61582 0.97808 4.55257 2.14119L7.53567 13.5991H11.1132L16.576 0.41046H12.8806ZM39.8876 13.5987H43.0403L40.2915 0.410108H37.5314C36.2568 0.410108 35.9463 1.39295 35.9463 1.39295L30.8254 13.5987H34.4047L35.1205 11.6397H39.4854L39.8876 13.5987ZM36.1093 8.93359L37.9134 3.99822L38.9284 8.93359H36.1093ZM31.0939 3.58194L31.5839 0.749833C31.5839 0.749833 30.0719 0.174805 28.4956 0.174805C26.7917 0.174805 22.7454 0.91952 22.7454 4.54079C22.7454 7.94792 27.4945 7.99026 27.4945 9.7799C27.4945 11.5695 23.2347 11.2489 21.8288 10.1203L21.3184 13.0816C21.3184 13.0816 22.8515 13.8263 25.194 13.8263C27.5371 13.8263 31.072 12.6131 31.072 9.31106C31.072 5.88205 26.2802 5.56279 26.2802 4.07195C26.2805 2.58075 29.6245 2.77231 31.0939 3.58194Z" fill="#2566AF"/>
<path d="M9.22019 7.52852L8.06484 1.59761C8.06484 1.59761 7.92514 0.410156 6.43606 0.410156H1.02444L0.960938 0.633465C0.960938 0.633465 3.56197 1.17251 6.05682 3.19217C8.44231 5.12257 9.22019 7.52852 9.22019 7.52852Z" fill="#E6A540"/>
</svg>
