<svg width="36" height="36" viewBox="0 0 36 36" fill="none" xmlns="http://www.w3.org/2000/svg">
<path d="M18 34C26.8365 34 34 26.8365 34 18C34 9.16346 26.8365 2 18 2C9.16346 2 2 9.16346 2 18C2 26.8365 9.16346 34 18 34Z" fill="#4DCB5B"/>
<path fill-rule="evenodd" clip-rule="evenodd" d="M22.5823 19.985C22.3328 19.8608 21.1095 19.2625 20.8817 19.1792C20.6539 19.0967 20.4881 19.0558 20.3215 19.3042C20.1557 19.5508 19.6793 20.1092 19.5344 20.2742C19.3887 20.44 19.2438 20.46 18.9952 20.3367C18.7465 20.2117 17.9443 19.9508 16.9939 19.1075C16.2545 18.4509 15.7546 17.64 15.6098 17.3917C15.4649 17.1442 15.5939 17.01 15.7186 16.8867C15.8308 16.7759 15.9673 16.5975 16.0921 16.4534C16.2169 16.3084 16.2579 16.205 16.3408 16.0392C16.4245 15.8742 16.3826 15.73 16.3198 15.6059C16.2579 15.4817 15.7605 14.2625 15.5528 13.7667C15.351 13.2842 15.1459 13.35 14.9935 13.3417C14.8478 13.335 14.682 13.3334 14.5162 13.3334C14.3504 13.3334 14.0808 13.395 13.853 13.6434C13.6244 13.8909 12.9822 14.49 12.9822 15.7092C12.9822 16.9275 13.8731 18.105 13.9979 18.2709C14.1227 18.4359 15.7521 20.9375 18.2482 22.01C18.8428 22.265 19.3058 22.4175 19.6667 22.5308C20.2629 22.72 20.8055 22.6933 21.2342 22.6292C21.7115 22.5583 22.7063 22.03 22.9139 21.4517C23.1208 20.8733 23.1207 20.3775 23.0588 20.2742C22.9968 20.1708 22.831 20.1092 22.5815 19.985H22.5823ZM18.0423 26.1542H18.0389C16.5563 26.1544 15.101 25.7578 13.8254 25.0058L13.524 24.8275L10.3906 25.6458L11.2271 22.6058L11.0303 22.2942C10.2015 20.9811 9.76286 19.4615 9.76512 17.9109C9.76679 13.3692 13.4796 9.6742 18.0456 9.6742C20.2562 9.6742 22.3345 10.5325 23.897 12.0892C24.6676 12.853 25.2785 13.7613 25.6941 14.7616C26.1098 15.7619 26.322 16.8343 26.3186 17.9167C26.3169 22.4583 22.6041 26.1542 18.0423 26.1542ZM25.086 10.9067C24.1634 9.98247 23.0657 9.24965 21.8564 8.7507C20.6472 8.25175 19.3505 7.9966 18.0414 8.00003C12.5535 8.00003 8.08541 12.4459 8.08373 17.91C8.08119 19.649 8.53956 21.3578 9.4126 22.8642L8 28L13.2786 26.6217C14.7388 27.4134 16.3752 27.8283 18.0381 27.8283H18.0423C23.5302 27.8283 27.9983 23.3825 28 17.9175C28.004 16.6152 27.7485 15.3251 27.2484 14.1217C26.7482 12.9183 26.0132 11.8256 25.086 10.9067Z" fill="white"/>
</svg>
